<svg width="481" height="140" viewBox="0 0 481 140" fill="none" xmlns="http://www.w3.org/2000/svg">
<path d="M239.39 97.1702C236.352 95.4116 232.907 94.5302 229.051 94.5302C225.194 94.5302 221.736 95.4116 218.674 97.1702C215.611 98.9331 213.2 101.345 211.442 104.405C209.68 107.469 208.803 110.928 208.803 114.786C208.803 118.644 209.685 122.033 211.442 125.093C213.2 128.157 215.611 130.569 218.674 132.327C221.736 134.09 225.194 134.967 229.051 134.967C232.907 134.967 236.352 134.086 239.39 132.327C242.428 130.569 244.826 128.157 246.584 125.093C248.342 122.029 249.223 118.595 249.223 114.786C249.223 110.978 248.342 107.469 246.584 104.405C244.822 101.345 242.428 98.9331 239.39 97.1702ZM242.827 122.998C241.452 125.434 239.573 127.363 237.188 128.785C234.802 130.207 232.089 130.918 229.055 130.918C226.021 130.918 223.365 130.207 220.955 128.785C218.545 127.363 216.641 125.434 215.241 122.998C213.84 120.561 213.142 117.825 213.142 114.786C213.142 111.747 213.84 108.941 215.241 106.504C216.637 104.068 218.541 102.139 220.955 100.717C223.365 99.2948 226.063 98.5839 229.055 98.5839C232.047 98.5839 234.802 99.2948 237.188 100.717C239.573 102.139 241.456 104.068 242.827 106.504C244.203 108.941 244.889 111.676 244.889 114.716C244.889 117.755 244.203 120.565 242.827 122.998Z" fill="white"/>
<path d="M282.508 97.1068C279.733 95.6883 276.609 94.979 273.135 94.979C270.044 94.979 267.224 95.6634 264.665 97.0363C262.581 98.152 260.825 99.612 259.382 101.4V97.6501C259.382 96.9782 259.191 96.4473 258.804 96.0616C258.417 95.6759 257.884 95.4851 257.21 95.4851C256.582 95.4851 256.062 95.68 255.655 96.0616C255.243 96.4473 255.039 96.9782 255.039 97.6501V132.798C255.039 133.424 255.243 133.942 255.655 134.349C256.062 134.76 256.582 134.963 257.21 134.963C257.884 134.963 258.417 134.76 258.804 134.349C259.191 133.942 259.382 133.424 259.382 132.798V110.715C259.382 108.55 259.985 106.601 261.192 104.871C262.398 103.138 264.037 101.781 266.113 100.794C268.189 99.8069 270.527 99.3134 273.135 99.3134C275.744 99.3134 278.165 99.8318 280.265 100.865C282.366 101.902 284.03 103.453 285.262 105.518C286.493 107.588 287.109 110.209 287.109 113.386V132.802C287.109 133.428 287.313 133.947 287.725 134.353C288.132 134.764 288.652 134.967 289.28 134.967C289.909 134.967 290.424 134.764 290.836 134.353C291.244 133.947 291.452 133.428 291.452 132.802V113.386C291.452 109.392 290.657 106.037 289.064 103.32C287.471 100.603 285.287 98.5336 282.512 97.1151L282.508 97.1068Z" fill="white"/>
<path d="M331.836 103.93C330.289 101.001 328.137 98.7021 325.376 97.0332C322.619 95.3644 319.45 94.5299 315.871 94.5299C312.293 94.5299 309.024 95.4019 306.221 97.1417C303.414 98.8857 301.212 101.268 299.619 104.293C298.022 107.318 297.226 110.814 297.226 114.782C297.226 118.75 298.072 122.188 299.765 125.238C301.459 128.287 303.794 130.67 306.768 132.389C309.741 134.108 313.14 134.967 316.964 134.967C319.237 134.967 321.618 134.508 324.112 133.586C326.602 132.668 328.62 131.504 330.172 130.102C330.656 129.668 330.885 129.184 330.86 128.65C330.835 128.121 330.556 127.632 330.026 127.198C329.638 126.861 329.167 126.702 328.612 126.727C328.057 126.752 327.582 126.956 327.198 127.344C326.085 128.408 324.575 129.268 322.661 129.923C320.751 130.578 318.853 130.903 316.964 130.903C313.966 130.903 311.305 130.215 308.982 128.834C306.659 127.453 304.845 125.555 303.54 123.135C302.418 121.057 301.78 118.708 301.621 116.092H332.057C332.687 116.092 333.191 115.908 333.579 115.55C333.967 115.187 334.159 114.69 334.159 114.06C334.159 110.238 333.383 106.863 331.836 103.934V103.93ZM303.427 106.362C304.661 103.942 306.355 102.044 308.507 100.663C310.658 99.2821 313.115 98.5937 315.871 98.5937C318.774 98.5937 321.301 99.2821 323.453 100.663C325.605 102.044 327.265 103.942 328.424 106.362C329.279 108.148 329.792 110.134 329.963 112.316H301.709C301.951 110.126 302.518 108.14 303.423 106.362H303.427Z" fill="white"/>
<path fill-rule="evenodd" clip-rule="evenodd" d="M267.712 70.9455C263.798 68.6774 260.694 65.5239 258.398 61.5179V61.5015C256.151 57.4736 255.02 52.8828 254.976 47.7673C254.932 42.6518 255.905 38.0063 257.944 33.9948C260.032 29.9396 262.929 26.726 266.624 24.3759C270.341 22.0095 274.621 20.8235 279.409 20.7798C284.131 20.7361 288.313 21.8073 291.904 24.048C295.528 26.2123 298.343 29.2619 300.332 33.1641C302.316 37.0663 303.317 41.4877 303.366 46.401C303.377 47.6908 302.983 48.8603 302.103 49.7785L302.076 49.8059L302.049 49.8331C301.163 50.6639 300.043 51.0355 298.818 51.0465L264.492 51.3689C264.848 53.3419 265.476 55.14 266.378 56.7741C267.887 59.3919 269.893 61.4305 272.418 62.9116C274.921 64.3817 277.818 65.1195 281.163 65.0867C283.137 65.0703 285.115 64.7151 287.105 64.0156C289.176 63.2504 290.745 62.3432 291.866 61.3321L291.893 61.3047C292.768 60.556 293.801 60.1625 294.938 60.1406C296.058 60.0587 297.113 60.3483 297.998 61.0588L298.075 61.1244C299.048 62.0207 299.682 63.1411 299.709 64.4637C299.802 65.7972 299.256 66.934 298.266 67.792C296.178 69.6338 293.555 71.1532 290.428 72.3774L290.406 72.3883C287.269 73.5524 284.213 74.1591 281.245 74.1864C276.239 74.2356 271.724 73.1699 267.734 70.9564L267.712 70.9455ZM287.296 31.9453C285.175 30.5626 282.596 29.8576 279.496 29.8849C276.348 29.9123 273.653 30.6993 271.363 32.1967C269.056 33.7052 267.258 35.7874 265.968 38.4873C265.356 39.7935 264.897 41.2035 264.596 42.7173L293.926 42.4441C293.626 40.7991 293.139 39.2743 292.456 37.8587C291.237 35.3119 289.521 33.3554 287.307 31.9563L287.291 31.9453H287.296Z" fill="white"/>
<path d="M322.716 23.4393H322.727C325.793 21.6044 329.176 20.6978 332.854 20.6978C335.679 20.6978 338.04 21.1019 339.811 22.0358C340.729 22.5219 341.5 23.1936 341.942 24.1111C342.396 25.045 342.445 26.0607 342.21 27.0711L342.199 27.1038C341.904 28.2343 341.314 29.2555 340.259 29.8071C339.423 30.2713 338.461 30.4024 337.466 30.3314H337.455C336.696 30.2713 335.816 30.2113 334.81 30.1512H334.772C331.624 29.8617 328.881 30.2112 326.509 31.1506H326.493C324.175 32.0353 322.355 33.3897 320.984 35.2137C319.699 36.9995 319.038 39.1403 319.038 41.7125V68.8438C319.038 70.2037 318.656 71.4488 317.743 72.3881C316.825 73.3275 315.601 73.7097 314.267 73.7097C312.934 73.7097 311.715 73.3275 310.797 72.3881C309.879 71.4488 309.502 70.2037 309.502 68.8438V26.0989C309.502 24.7391 309.879 23.494 310.797 22.5546C311.715 21.6153 312.939 21.233 314.267 21.233C315.595 21.233 316.819 21.6153 317.743 22.5546C318.661 23.494 319.038 24.7391 319.038 26.0989V26.2737C320.153 25.1924 321.383 24.2421 322.716 23.4339V23.4393Z" fill="white"/>
<path d="M350.271 72.3936L350.227 72.3444C349.352 71.3668 348.981 70.1217 348.981 68.7564V46.6712C348.981 45.3114 349.358 44.0663 350.276 43.1269C351.227 42.1548 352.462 41.7125 353.834 41.7125C355.206 41.7125 356.326 42.1548 357.217 43.1269C358.184 44.0499 358.605 45.295 358.605 46.6712V68.7564C358.605 70.1599 358.173 71.416 357.217 72.3881C356.315 73.311 355.129 73.7097 353.834 73.7097C352.539 73.7097 351.281 73.3219 350.32 72.4318L350.271 72.3881V72.3936Z" fill="white"/>
<path fill-rule="evenodd" clip-rule="evenodd" d="M440.63 70.706L440.614 70.695C436.794 68.3303 433.75 65.1301 431.509 61.1107L431.498 61.0943C429.296 57.053 428.208 52.5147 428.208 47.5177C428.208 42.5207 429.329 37.8842 431.597 33.8374L431.608 33.821C433.919 29.8016 437.051 26.6286 440.997 24.3294C444.959 21.9538 449.413 20.7797 454.321 20.7797C459.228 20.7797 463.655 21.9538 467.557 24.3294C471.503 26.6286 474.607 29.8016 476.864 33.8265C479.187 37.8678 480.367 42.4388 480.427 47.4958V68.8383C480.427 70.2036 479.979 71.4269 479.039 72.3826L479.017 72.4044L478.995 72.4263C478.05 73.3 476.87 73.7041 475.569 73.7041C474.268 73.7041 473.088 73.3055 472.148 72.4263L472.126 72.4044L472.098 72.3826C471.158 71.4269 470.71 70.2036 470.71 68.8383V67.178C469.284 68.6253 467.666 69.8868 465.868 70.9681H465.857C462.25 73.1089 458.152 74.1575 453.605 74.1575C448.812 74.1575 444.478 73.0106 440.63 70.695V70.706ZM462.759 62.7326H462.77C465.278 61.2199 467.234 59.1665 468.655 56.5451V56.5342C470.136 53.8582 470.88 50.8654 470.88 47.5177C470.88 44.17 470.131 41.1227 468.666 38.5122L468.655 38.4903C467.234 35.869 465.278 33.8155 462.77 32.3137L462.737 32.2973C460.31 30.7573 457.518 29.9709 454.31 29.9709C451.102 29.9709 448.375 30.7573 445.877 32.3028L445.861 32.3137C443.347 33.821 441.352 35.8799 439.865 38.5122C438.401 41.1172 437.652 44.1045 437.652 47.5177C437.652 50.931 438.395 53.8527 439.871 56.5287C441.352 59.161 443.347 61.2144 445.861 62.7217C448.358 64.218 451.162 64.9772 454.31 64.9772C457.457 64.9772 460.327 64.2181 462.753 62.7271L462.759 62.7326Z" fill="white"/>
<path d="M223.585 70.5313C224.011 71.4816 224.59 72.2844 225.361 72.8578C226.153 73.4421 227.06 73.7152 228.044 73.7152C229.028 73.7152 230.006 73.453 230.831 72.8796C231.646 72.3116 232.252 71.4979 232.684 70.5313L252.145 27.7155C252.67 26.6287 252.708 25.4709 252.287 24.3405C251.861 23.139 251.041 22.2324 249.915 21.659L249.877 21.6426L249.839 21.6262C248.691 21.1238 247.489 21.0856 246.303 21.4843C245.073 21.8502 244.177 22.6967 243.663 23.8981L228.061 58.8498L212.212 23.8381L212.19 23.7998C211.627 22.7349 210.786 21.9485 209.687 21.517C208.512 21.0583 207.31 21.173 206.184 21.7464C205.042 22.2925 204.162 23.1445 203.714 24.3295C203.276 25.4873 203.331 26.667 203.839 27.792L223.579 70.5368L223.585 70.5313Z" fill="white"/>
<path fill-rule="evenodd" clip-rule="evenodd" d="M371.404 61.1273C373.721 65.1467 376.853 68.3469 380.788 70.7062L380.804 70.7171C384.766 73.0272 389.215 74.1686 394.117 74.1686C399.019 74.1686 403.353 73.0272 407.255 70.7116C411.201 68.4125 414.305 65.2723 416.568 61.302C418.885 57.2716 420.098 52.7661 420.224 47.8292V4.95878C420.224 3.57164 419.797 2.321 418.814 1.3926C417.879 0.453273 416.693 0 415.365 0C414.037 0 412.851 0.447812 411.917 1.3926C410.933 2.321 410.507 3.57164 410.507 4.95878V27.7702C408.873 26.1209 406.971 24.7228 404.807 23.576C401.391 21.7028 397.576 20.7799 393.401 20.7799C388.603 20.7799 384.263 21.9595 380.416 24.3406C376.59 26.6452 373.546 29.8182 371.295 33.8376L371.284 33.854C369.081 37.8953 367.999 42.4335 367.999 47.4305C367.999 52.4275 369.12 57.0641 371.382 61.1109L371.393 61.1273H371.404ZM408.474 38.5179C409.949 41.1283 410.693 44.0883 410.693 47.4305C410.693 50.7728 409.944 53.8256 408.474 56.436L408.463 56.4579C407.042 59.0847 405.08 61.1709 402.555 62.7383C400.129 64.2237 397.331 64.9828 394.117 64.9828C390.904 64.9828 388.166 64.2292 385.674 62.7328C383.149 61.1655 381.154 59.0738 379.673 56.436C378.208 53.831 377.459 50.8438 377.459 47.4305C377.459 44.0173 378.208 41.1283 379.673 38.5179L379.684 38.5069C381.165 35.8146 383.16 33.7284 385.663 32.2266C388.166 30.7302 390.969 29.9711 394.117 29.9711C397.265 29.9711 400.129 30.7302 402.561 32.2211H402.572C405.075 33.7284 407.031 35.8036 408.457 38.4851L408.468 38.5179H408.474Z" fill="white"/>
<path d="M350.271 36.2459L350.227 36.1968C349.352 35.2192 348.981 33.974 348.981 32.6087V27.2076C348.981 25.8478 349.358 24.6026 350.276 23.6633C351.227 22.6912 352.462 22.2488 353.834 22.2488C355.206 22.2488 356.326 22.6912 357.217 23.6633C358.184 24.5862 358.605 25.8314 358.605 27.2076V32.6087C358.605 34.0123 358.173 35.2683 357.217 36.2404C356.315 37.1634 355.129 37.5621 353.834 37.5621C352.539 37.5621 351.281 37.1743 350.32 36.2841L350.271 36.2404V36.2459Z" fill="#37D5C7"/>
<path d="M146.665 8.3761C149.864 8.3761 152.818 10.0847 154.42 12.8506H154.424L160.865 23.9943C161.229 24.622 160.776 25.4103 160.048 25.4103H39.6654C38.9376 25.4103 38.4839 24.622 38.8478 23.9943L42.6756 17.3722C42.841 17.0796 43.1576 16.9002 43.4932 16.9002H70.9448L73.1659 12.8506C74.7632 10.08 77.7215 8.3761 80.9208 8.3761H146.665Z" fill="#37D5C7"/>
<path d="M149.67 48.264L142.052 35.4731H142.057C140.932 33.5851 139.174 32.2116 137.147 31.5461H164.683C165.019 31.5461 165.331 31.7255 165.501 32.0181L174.891 48.264H149.67Z" fill="#37D5C7"/>
<path d="M153.852 93.0703L162.382 78.7454V78.7406C162.623 78.3395 162.826 77.9194 162.996 77.4946C163.058 77.3388 163.204 77.235 163.37 77.235H187.343C187.636 77.235 187.834 77.5276 187.712 77.8108C187.589 78.094 187.447 78.3725 187.291 78.6415L178.988 93.0042C178.747 93.4243 178.303 93.6791 177.821 93.6791H154.202C153.885 93.6791 153.691 93.3393 153.852 93.0703Z" fill="#37D5C7"/>
<path d="M62.9018 31.5508C62.5663 31.5508 62.2496 31.7302 62.0842 32.0228L53.5119 46.8528C53.148 47.4805 53.6016 48.2688 54.3294 48.2688H77.9153L85.5332 35.4778C86.6579 33.5898 88.4111 32.2163 90.4432 31.5508H62.9018Z" fill="#37D5C7"/>
<path d="M186.464 71.1132H163.095C162.906 70.594 162.67 70.089 162.382 69.6075L153.322 54.3953H177.891C178.227 54.3953 178.539 54.5747 178.709 54.8673L187.286 69.7067L187.288 69.7088L187.29 69.7111L187.291 69.7135L187.294 69.7184L187.296 69.7208C187.655 70.3392 187.177 71.1132 186.464 71.1132Z" fill="#37D5C7"/>
<path d="M73.1609 135.526C74.763 138.291 77.7165 140 80.9158 140H146.66C149.859 140 152.817 138.296 154.415 135.526L161.177 123.825C161.541 123.197 161.087 122.409 160.36 122.409H67.2113C66.4835 122.409 66.0298 123.197 66.3937 123.825L73.1562 135.526H73.1609Z" fill="#37D5C7"/>
<path d="M165 116.263H138.461C139.926 115.508 141.178 114.357 142.047 112.894L149.831 99.8241H173.412C174.14 99.8241 174.593 100.612 174.229 101.24L165.818 115.791C165.652 116.084 165.336 116.263 165 116.263Z" fill="#37D5C7"/>
<path d="M64.4896 77.2398H40.0388C39.8451 77.2398 39.7128 77.4333 39.7836 77.6126C39.9301 77.9666 40.0955 78.3112 40.2893 78.6463L43.6256 84.4329C43.9895 85.0606 43.5359 85.8489 42.8081 85.8489H23.4091C22.6813 85.8489 22.2277 86.6371 22.5915 87.2648L26.0271 93.2119C26.1973 93.5045 26.5091 93.6839 26.8447 93.6839H74.0922L65.1985 78.7501C64.9102 78.2687 64.6787 77.7637 64.4849 77.2445L64.4896 77.2398Z" fill="#37D5C7"/>
<path d="M49.6789 54.3953C49.3481 54.3953 49.041 54.57 48.8708 54.8531L44.1168 62.7543C43.9467 63.0375 43.6395 63.2121 43.3087 63.2121H4.43031C4.09478 63.2121 3.77817 63.3914 3.61277 63.6841L0.129927 69.7067C0.129927 69.7067 0.125193 69.7161 0.120467 69.7208C-0.233961 70.3392 0.238614 71.1132 0.952195 71.1132H64.494C64.6831 70.5987 64.9194 70.0937 65.2076 69.6075L74.2668 54.3953H49.6789Z" fill="#37D5C7"/>
<path d="M77.7449 99.8243L85.5282 112.894V112.889C86.4024 114.352 87.6547 115.504 89.115 116.259H25.7197C25.3841 116.259 25.0722 116.08 24.9021 115.787L21.8399 110.472C21.476 109.84 21.9296 109.056 22.6574 109.056H56.2288C56.9566 109.056 57.4102 108.268 57.0464 107.64L53.3461 101.24C52.9822 100.613 53.4359 99.8243 54.1636 99.8243H77.7449Z" fill="#37D5C7"/>
</svg>
