<svg width="460" height="138" viewBox="0 0 460 138" fill="none" xmlns="http://www.w3.org/2000/svg">
<path d="M218.257 98.673C215.158 96.8798 211.644 95.981 207.71 95.981C203.776 95.981 200.249 96.8798 197.124 98.673C194 100.471 191.541 102.929 189.748 106.05C187.95 109.174 187.056 112.701 187.056 116.635C187.056 120.569 187.954 124.024 189.748 127.145C191.541 130.269 194 132.728 197.124 134.521C200.249 136.319 203.776 137.213 207.71 137.213C211.644 137.213 215.158 136.314 218.257 134.521C221.356 132.728 223.803 130.269 225.596 127.145C227.389 124.02 228.288 120.518 228.288 116.635C228.288 112.752 227.389 109.174 225.596 106.05C223.798 102.929 221.356 100.471 218.257 98.673ZM221.763 125.008C220.36 127.492 218.444 129.459 216.011 130.909C213.577 132.359 210.809 133.084 207.714 133.084C204.619 133.084 201.91 132.359 199.452 130.909C196.993 129.459 195.051 127.492 193.622 125.008C192.194 122.524 191.482 119.734 191.482 116.635C191.482 113.536 192.194 110.675 193.622 108.19C195.047 105.706 196.988 103.739 199.452 102.289C201.91 100.839 204.662 100.114 207.714 100.114C210.766 100.114 213.577 100.839 216.011 102.289C218.444 103.739 220.364 105.706 221.763 108.19C223.167 110.675 223.866 113.464 223.866 116.563C223.866 119.662 223.167 122.528 221.763 125.008Z" fill="white"/>
<path d="M262.165 98.9317C259.337 97.4818 256.153 96.7569 252.613 96.7569C249.464 96.7569 246.589 97.4564 243.982 98.8597C241.858 100 240.069 101.492 238.598 103.319V99.4871C238.598 98.8003 238.403 98.2577 238.009 97.8634C237.615 97.4692 237.072 97.2741 236.385 97.2741C235.745 97.2741 235.215 97.4734 234.8 97.8634C234.38 98.2577 234.172 98.8003 234.172 99.4871V135.411C234.172 136.052 234.38 136.582 234.8 136.997C235.215 137.417 235.745 137.624 236.385 137.624C237.072 137.624 237.615 137.417 238.009 136.997C238.403 136.582 238.598 136.052 238.598 135.411V112.841C238.598 110.628 239.213 108.636 240.442 106.868C241.672 105.096 243.342 103.709 245.457 102.701C247.573 101.692 249.955 101.187 252.613 101.187C255.271 101.187 257.739 101.717 259.88 102.773C262.02 103.832 263.716 105.418 264.971 107.529C266.226 109.645 266.853 112.324 266.853 115.571V135.416C266.853 136.056 267.061 136.586 267.481 137.001C267.896 137.421 268.426 137.629 269.066 137.629C269.707 137.629 270.232 137.421 270.652 137.001C271.067 136.586 271.279 136.056 271.279 135.416V115.571C271.279 111.489 270.47 108.059 268.846 105.282C267.222 102.506 264.997 100.39 262.169 98.9402L262.165 98.9317Z" fill="white"/>
<path d="M312.346 105.681C310.773 102.705 308.586 100.369 305.779 98.6731C302.977 96.9774 299.755 96.1295 296.118 96.1295C292.48 96.1295 289.157 97.0155 286.308 98.7834C283.455 100.555 281.216 102.976 279.597 106.05C277.973 109.123 277.163 112.676 277.163 116.707C277.163 120.739 278.024 124.232 279.745 127.331C281.466 130.43 283.841 132.851 286.863 134.598C289.886 136.344 293.341 137.218 297.228 137.218C299.539 137.218 301.96 136.751 304.495 135.814C307.026 134.882 309.077 133.699 310.654 132.274C311.146 131.834 311.379 131.342 311.354 130.799C311.329 130.261 311.045 129.765 310.506 129.324C310.112 128.98 309.633 128.819 309.069 128.845C308.505 128.87 308.022 129.078 307.632 129.472C306.5 130.553 304.965 131.427 303.019 132.092C301.078 132.758 299.149 133.088 297.228 133.088C294.18 133.088 291.476 132.389 289.114 130.986C286.753 129.582 284.909 127.654 283.582 125.195C282.442 123.083 281.793 120.697 281.632 118.039H312.571C313.211 118.039 313.724 117.852 314.118 117.487C314.512 117.119 314.707 116.614 314.707 115.974C314.707 112.091 313.919 108.661 312.346 105.685V105.681ZM283.467 108.152C284.722 105.694 286.443 103.765 288.631 102.361C290.818 100.958 293.315 100.259 296.118 100.259C299.068 100.259 301.637 100.958 303.825 102.361C306.012 103.765 307.7 105.694 308.878 108.152C309.747 109.967 310.269 111.985 310.443 114.202H281.721C281.967 111.976 282.543 109.958 283.463 108.152H283.467Z" fill="white"/>
<path fill-rule="evenodd" clip-rule="evenodd" d="M245.844 71.4383C241.905 69.155 238.78 65.9803 236.469 61.9473V61.9309C234.208 57.8759 233.069 53.2541 233.025 48.1042C232.981 42.9543 233.96 38.2776 236.012 34.2391C238.114 30.1565 241.03 26.9214 244.749 24.5555C248.491 22.1731 252.799 20.9791 257.619 20.9351C262.372 20.8911 266.582 21.9695 270.196 24.2254C273.844 26.4042 276.678 29.4743 278.681 33.4028C280.678 37.3312 281.685 41.7824 281.734 46.7287C281.745 48.0272 281.349 49.2046 280.463 50.129L280.436 50.1565L280.408 50.184C279.517 51.0203 278.389 51.3945 277.156 51.4055L242.604 51.7301C242.961 53.7163 243.594 55.5265 244.502 57.1716C246.02 59.8071 248.04 61.8593 250.582 63.3504C253.102 64.8304 256.018 65.5732 259.385 65.5402C261.371 65.5237 263.363 65.166 265.366 64.4618C267.451 63.6915 269.03 62.7781 270.158 61.7603L270.185 61.7327C271.066 60.979 272.106 60.5828 273.25 60.5608C274.378 60.4783 275.44 60.7699 276.331 61.4852L276.37 61.5182L276.408 61.5512C277.388 62.4535 278.026 63.5814 278.053 64.9129C278.147 66.2554 277.597 67.3998 276.601 68.2636C274.499 70.1178 271.858 71.6474 268.711 72.8799L268.689 72.8909C265.531 74.0628 262.455 74.6736 259.467 74.7011C254.428 74.7506 249.883 73.6777 245.866 71.4494L245.844 71.4383ZM265.558 32.1758C263.423 30.7838 260.826 30.074 257.707 30.1015C254.538 30.1291 251.825 30.9213 249.52 32.4289C247.198 33.9475 245.388 36.0437 244.089 38.7618C243.473 40.0767 243.011 41.4962 242.708 43.0203L272.232 42.7452C271.93 41.0891 271.44 39.554 270.752 38.129C269.525 35.5651 267.798 33.5953 265.569 32.1868L265.553 32.1758H265.558Z" fill="white"/>
<path d="M301.223 23.6147H301.234C304.32 21.766 307.726 20.8527 311.429 20.8527C314.273 20.8527 316.65 21.2598 318.433 22.2006C319.357 22.6903 320.133 23.3671 320.579 24.2914C321.035 25.2323 321.085 26.2557 320.848 27.2735L320.837 27.3065C320.54 28.4455 319.946 29.4744 318.884 30.0301C318.042 30.4977 317.074 30.6298 316.073 30.5582H316.062C315.297 30.4977 314.411 30.4372 313.399 30.3767H313.382H313.36C310.191 30.0851 307.429 30.4372 305.041 31.3835H305.025C302.692 32.2749 300.859 33.6394 299.478 35.4771C298.185 37.2762 297.52 39.433 297.52 42.0245V69.3587C297.52 70.7287 297.135 71.9831 296.216 72.9295C295.291 73.8758 294.059 74.2609 292.716 74.2609C291.374 74.2609 290.147 73.8758 289.223 72.9295C288.298 71.9831 287.919 70.7287 287.919 69.3587V26.2942C287.919 24.9241 288.298 23.6697 289.223 22.7233C290.147 21.777 291.379 21.3919 292.716 21.3919C294.053 21.3919 295.286 21.777 296.216 22.7233C297.14 23.6697 297.52 24.9241 297.52 26.2942V26.4702C298.642 25.3808 299.88 24.4235 301.223 23.6092V23.6147Z" fill="white"/>
<path d="M328.963 72.935L328.919 72.8854C328.039 71.9006 327.665 70.6461 327.665 69.2706V47.0204C327.665 45.6504 328.044 44.3959 328.969 43.4495C329.926 42.4702 331.17 42.0245 332.551 42.0245C333.932 42.0245 335.06 42.4702 335.956 43.4495C336.93 44.3794 337.354 45.6338 337.354 47.0204V69.2706C337.354 70.6847 336.919 71.9501 335.956 72.9295C335.049 73.8594 333.855 74.261 332.551 74.261C331.247 74.261 329.981 73.8703 329.013 72.9735L328.963 72.9295V72.935Z" fill="white"/>
<path fill-rule="evenodd" clip-rule="evenodd" d="M419.934 71.2348L419.918 71.2238C416.072 68.8414 413.007 65.6173 410.751 61.5678L410.74 61.5512C408.523 57.4797 407.428 52.9075 407.428 47.8732C407.428 42.8388 408.556 38.1676 410.839 34.0906L410.85 34.0741C413.178 30.0246 416.33 26.8279 420.303 24.5115C424.292 22.1181 428.776 20.9352 433.717 20.9352C438.658 20.9352 443.114 22.1181 447.043 24.5115C451.015 26.8279 454.14 30.0246 456.413 34.0796C458.751 38.1511 459.939 42.7563 460 47.8511V69.3532C460 70.7287 459.549 71.9611 458.602 72.924L458.58 72.9459L458.559 72.968C457.607 73.8483 456.418 74.2554 455.109 74.2554C453.799 74.2554 452.611 73.8538 451.664 72.968L451.642 72.9459L451.615 72.924C450.669 71.9611 450.217 70.7287 450.217 69.3532V67.6805C448.781 69.1386 447.153 70.4095 445.343 71.4989H445.332C441.7 73.6557 437.574 74.7121 432.996 74.7121C428.171 74.7121 423.808 73.5567 419.934 71.2238V71.2348ZM442.212 63.2018H442.223C444.748 61.6778 446.718 59.609 448.149 56.9681V56.957C449.64 54.261 450.388 51.2459 450.388 47.8732C450.388 44.5004 449.634 41.4303 448.16 38.8003L448.149 38.7783C446.718 36.1373 444.748 34.0685 442.223 32.5555L442.19 32.539C439.747 30.9874 436.935 30.1951 433.706 30.1951C430.476 30.1951 427.731 30.9874 425.216 32.5445L425.2 32.5555C422.669 34.074 420.66 36.1483 419.164 38.8003C417.689 41.4248 416.936 44.4344 416.936 47.8732C416.936 51.3119 417.684 54.2555 419.169 56.9515C420.66 59.6035 422.669 61.6723 425.2 63.1908C427.714 64.6984 430.537 65.4632 433.706 65.4632C436.875 65.4632 439.763 64.6984 442.206 63.1963L442.212 63.2018Z" fill="white"/>
<path d="M201.421 71.0588C201.85 72.0161 202.433 72.8249 203.209 73.4026C204.007 73.9913 204.92 74.2664 205.911 74.2664C206.901 74.2664 207.886 74.0023 208.717 73.4246C209.537 72.8524 210.147 72.0326 210.582 71.0588L230.175 27.9228C230.703 26.8279 230.741 25.6614 230.318 24.5225C229.889 23.3121 229.063 22.3987 227.93 21.821L227.891 21.8045L227.853 21.788C226.697 21.2818 225.487 21.2433 224.293 21.645C223.055 22.0136 222.153 22.8664 221.636 24.0768L205.927 59.2899L189.971 24.0163L189.949 23.9778C189.383 22.9049 188.535 22.1126 187.429 21.678C186.246 21.2158 185.036 21.3313 183.903 21.909C182.753 22.4592 181.867 23.3175 181.416 24.5115C180.975 25.6779 181.03 26.8664 181.542 27.9998L201.416 71.0643L201.421 71.0588Z" fill="white"/>
<path fill-rule="evenodd" clip-rule="evenodd" d="M350.24 61.5843C352.573 65.6338 355.726 68.858 359.687 71.2349L359.703 71.2459C363.692 73.5732 368.171 74.7232 373.107 74.7232C378.042 74.7232 382.405 73.5732 386.333 71.2404C390.306 68.924 393.431 65.7604 395.709 61.7604C398.042 57.6999 399.263 53.1607 399.39 48.1868V4.99586C399.39 3.59834 398.961 2.33836 397.97 1.40301C397.029 0.456662 395.835 0 394.498 0C393.161 0 391.967 0.45116 391.027 1.40301C390.036 2.33836 389.607 3.59834 389.607 4.99586V27.9778C387.962 26.3162 386.047 24.9077 383.869 23.7523C380.43 21.8651 376.589 20.9352 372.386 20.9352C367.555 20.9352 363.186 22.1237 359.313 24.5226C355.461 26.8444 352.397 30.0411 350.13 34.0906L350.119 34.1071C347.902 38.1786 346.812 42.7508 346.812 47.7852C346.812 52.8195 347.94 57.4908 350.218 61.5678L350.229 61.5843H350.24ZM387.56 38.8059C389.046 41.4359 389.794 44.4179 389.794 47.7852C389.794 51.1524 389.04 54.2281 387.56 56.858L387.549 56.8801C386.119 59.5266 384.144 61.6283 381.602 63.2074C379.159 64.704 376.342 65.4687 373.107 65.4687C369.871 65.4687 367.115 64.7095 364.606 63.2019C362.064 61.6228 360.056 59.5155 358.565 56.858C357.09 54.2336 356.336 51.224 356.336 47.7852C356.336 44.3464 357.09 41.4359 358.565 38.8059L358.576 38.7949C360.067 36.0824 362.075 33.9806 364.595 32.4675C367.115 30.96 369.937 30.1952 373.107 30.1952C376.276 30.1952 379.159 30.96 381.607 32.462H381.618C384.138 33.9806 386.108 36.0713 387.544 38.7728L387.555 38.8059H387.56Z" fill="white"/>
<path d="M328.963 36.5169L328.919 36.4675C328.039 35.4826 327.665 34.2281 327.665 32.8526V27.4111C327.665 26.0411 328.044 24.7866 328.969 23.8403C329.926 22.8609 331.17 22.4152 332.551 22.4152C333.932 22.4152 335.06 22.8609 335.956 23.8403C336.93 24.7701 337.354 26.0246 337.354 27.4111V32.8526C337.354 34.2666 336.919 35.5321 335.956 36.5114C335.049 37.4413 333.855 37.843 332.551 37.843C331.247 37.843 329.981 37.4523 329.013 36.5555L328.963 36.5114V36.5169Z" fill="#37D5C7"/>
<path d="M150.956 80.7542L143.026 94.0875C142.877 94.3379 143.057 94.6542 143.352 94.6542H165.309C165.757 94.6542 166.17 94.417 166.394 94.026L174.113 80.6575C174.258 80.4071 174.389 80.1479 174.504 79.8843C174.618 79.6208 174.433 79.3484 174.161 79.3484H151.874C151.721 79.3484 151.584 79.445 151.527 79.59C151.369 79.9854 151.18 80.3764 150.956 80.7498V80.7542Z" fill="#37D5C7"/>
<path d="M132.057 40.4775L139.139 52.383H162.585L153.856 37.2617C153.698 36.9893 153.408 36.8224 153.096 36.8224H127.497C129.381 37.4418 131.016 38.7202 132.061 40.4775H132.057Z" fill="#37D5C7"/>
<path d="M84.0744 36.8267H58.4754C58.1635 36.8267 57.8691 36.9937 57.7154 37.266L49.7462 51.0694C49.4079 51.6537 49.8297 52.3874 50.5062 52.3874H72.4325L79.5143 40.4818C80.5599 38.7246 82.1898 37.4462 84.0788 36.8267H84.0744Z" fill="#37D5C7"/>
<path d="M151.615 73.6504H173.344C174.007 73.6504 174.451 72.93 174.117 72.3544C174.117 72.3544 174.113 72.3456 174.108 72.3413L166.135 58.5291C165.976 58.2567 165.687 58.0898 165.375 58.0898H142.534L150.956 72.249C151.224 72.6971 151.444 73.1672 151.62 73.6504H151.615Z" fill="#37D5C7"/>
<path d="M68.013 133.604C69.5023 136.179 72.248 137.769 75.2222 137.769H136.34C139.314 137.769 142.064 136.183 143.549 133.604L149.836 122.713C150.174 122.129 149.752 121.396 149.076 121.396H62.482C61.8054 121.396 61.3836 122.129 61.7219 122.713L68.0086 133.604H68.013Z" fill="#37D5C7"/>
<path d="M128.722 115.676H153.39C153.702 115.676 153.996 115.509 154.15 115.236L161.97 101.692C162.308 101.108 161.886 100.374 161.21 100.374H139.288L132.052 112.539C131.244 113.901 130.08 114.973 128.718 115.676H128.722Z" fill="#37D5C7"/>
<path d="M59.9515 79.3528H37.2212C37.0411 79.3528 36.9181 79.5329 36.984 79.6998C37.1201 80.0293 37.2739 80.35 37.454 80.6619L40.5556 86.048C40.8939 86.6323 40.4722 87.3659 39.7956 87.3659H21.7616C21.085 87.3659 20.6633 88.0996 21.0016 88.6839L24.1954 94.2193C24.3536 94.4917 24.6435 94.6586 24.9554 94.6586H68.8784L60.6105 80.7586C60.3425 80.3105 60.1272 79.8404 59.9471 79.3572L59.9515 79.3528Z" fill="#37D5C7"/>
<path d="M143.554 19.421C142.064 16.8466 139.319 15.2563 136.344 15.2563H75.2266C72.2524 15.2563 69.5023 16.8422 68.0174 19.421L65.9526 23.1904H40.4326C40.1207 23.1904 39.8263 23.3573 39.6726 23.6297L36.1141 29.7933C35.7758 30.3776 36.1976 31.1113 36.8741 31.1113H148.786C149.462 31.1113 149.884 30.3776 149.546 29.7933L143.558 19.421H143.554Z" fill="#37D5C7"/>
<path d="M69.0322 58.0898H46.1832C45.8757 58.0898 45.5902 58.2523 45.432 58.5159L41.0125 65.8701C40.8544 66.1337 40.5688 66.2962 40.2612 66.2962H4.11857C3.80665 66.2962 3.51232 66.4632 3.35855 66.7356L0.120785 72.3413C0.120785 72.3413 0.116383 72.3501 0.11199 72.3544C-0.217498 72.93 0.221824 73.6504 0.885194 73.6504H59.9559C60.1316 73.1716 60.3513 72.7015 60.6193 72.249L69.041 58.0898H69.0322Z" fill="#37D5C7"/>
<path d="M79.51 112.539L72.2744 100.374H50.3524C49.6758 100.374 49.2541 101.108 49.5924 101.692L53.0323 107.649C53.3705 108.233 52.9488 108.967 52.2723 108.967H21.0631C20.3865 108.967 19.9648 109.696 20.3031 110.285L23.1499 115.232C23.308 115.504 23.598 115.671 23.9099 115.671H82.8444C81.4869 114.968 80.3227 113.896 79.51 112.534V112.539Z" fill="#37D5C7"/>
</svg>
