<svg width="195" height="136" viewBox="0 0 195 136" fill="none" xmlns="http://www.w3.org/2000/svg">
<path d="M151.799 0.307678C155.089 0.307678 158.127 2.06509 159.775 4.90998H159.78L166.405 16.3721C166.779 17.0178 166.313 17.8285 165.564 17.8285H41.742C40.9935 17.8285 40.5268 17.0178 40.9011 16.3721L44.8383 9.56085C45.0084 9.25985 45.3341 9.07537 45.6792 9.07537H73.9151L76.1997 4.90998C77.8426 2.06024 80.8854 0.307678 84.1762 0.307678H151.799Z" fill="#37D5C7"/>
<path d="M154.89 41.3352L147.054 28.1788H147.059C145.902 26.2369 144.094 24.8242 142.009 24.1397H170.332C170.677 24.1397 170.998 24.3242 171.173 24.6252L180.831 41.3352H154.89Z" fill="#37D5C7"/>
<path d="M159.191 87.4217L167.965 72.6875V72.6826C168.213 72.27 168.422 71.8379 168.597 71.401C168.66 71.2408 168.81 71.134 168.981 71.134H193.639C193.94 71.134 194.145 71.435 194.018 71.7262C193.892 72.0175 193.746 72.304 193.586 72.5807L185.045 87.3537C184.797 87.7858 184.34 88.0479 183.845 88.0479H159.551C159.225 88.0479 159.026 87.6984 159.191 87.4217Z" fill="#37D5C7"/>
<path d="M65.6424 24.1446C65.2973 24.1446 64.9716 24.329 64.8014 24.63L55.9841 39.8837C55.6099 40.5294 56.0765 41.3401 56.825 41.3401H81.0849L88.9203 28.1837C90.0772 26.2418 91.8805 24.8291 93.9706 24.1446H65.6424Z" fill="#37D5C7"/>
<path d="M192.735 64.8373H168.698C168.504 64.3032 168.261 63.7838 167.964 63.2886L158.646 47.6417H183.917C184.262 47.6417 184.583 47.8262 184.758 48.1272L193.58 63.3906L193.582 63.3928L193.584 63.3952L193.586 63.3976L193.589 63.4026L193.59 63.4051C193.96 64.0411 193.469 64.8373 192.735 64.8373Z" fill="#37D5C7"/>
<path d="M76.1946 131.09C77.8424 133.935 80.8804 135.692 84.1711 135.692H151.793C155.084 135.692 158.127 133.94 159.77 131.09L166.726 119.055C167.1 118.409 166.633 117.599 165.885 117.599H70.075C69.3264 117.599 68.8598 118.409 69.234 119.055L76.1898 131.09H76.1946Z" fill="#37D5C7"/>
<path d="M170.658 111.278H143.36C144.867 110.501 146.155 109.316 147.049 107.811L155.055 94.3684H179.31C180.058 94.3684 180.525 95.1792 180.151 95.8249L171.499 110.792C171.329 111.093 171.003 111.278 170.658 111.278Z" fill="#37D5C7"/>
<path d="M67.2755 71.1389H42.1262C41.9269 71.1389 41.7908 71.3379 41.8637 71.5224C42.0144 71.8865 42.1845 72.2409 42.3838 72.5856L45.8154 78.5375C46.1897 79.1832 45.7231 79.9939 44.9746 79.9939H25.0213C24.2727 79.9939 23.8061 80.8047 24.1804 81.4504L27.7141 87.5674C27.8891 87.8684 28.2099 88.0528 28.555 88.0528H77.1525L68.0047 72.6924C67.7082 72.1972 67.47 71.6777 67.2707 71.1437L67.2755 71.1389Z" fill="#37D5C7"/>
<path d="M52.0417 47.6417C51.7014 47.6417 51.3855 47.8214 51.2105 48.1126L46.3207 56.2395C46.1457 56.5308 45.8297 56.7104 45.4894 56.7104H5.50025C5.15513 56.7104 4.82948 56.8949 4.65935 57.1959L1.077 63.3906C1.077 63.3906 1.07213 63.4003 1.06727 63.4051C0.702714 64.0411 1.18879 64.8373 1.92276 64.8373H67.2801C67.4745 64.3081 67.7176 63.7886 68.0141 63.2886L77.332 47.6417H52.0417Z" fill="#37D5C7"/>
<path d="M80.9095 94.3687L88.9152 107.812V107.807C89.8144 109.312 91.1025 110.496 92.6045 111.273H27.3979C27.0527 111.273 26.7319 111.088 26.557 110.787L23.4072 105.321C23.0329 104.671 23.4996 103.865 24.2481 103.865H58.7787C59.5273 103.865 59.9939 103.054 59.6196 102.408L55.8136 95.8252C55.4394 95.1795 55.906 94.3687 56.6545 94.3687H80.9095Z" fill="#37D5C7"/>
</svg>
