<svg width="419" height="140" viewBox="0 0 419 140" fill="none" xmlns="http://www.w3.org/2000/svg">
<path d="M185.229 104.565C183.662 101.885 181.513 99.8431 178.784 98.4437C176.055 97.0444 172.982 96.3447 169.565 96.3447C166.524 96.3447 163.75 97.0198 161.234 98.3742C159.183 99.4749 157.457 100.915 156.037 102.679V98.9798C156.037 98.3169 155.848 97.7931 155.468 97.4126C155.087 97.0321 154.564 96.8439 153.901 96.8439C153.283 96.8439 152.771 97.0362 152.37 97.4126C151.965 97.7931 151.765 98.3169 151.765 98.9798V133.653C151.765 134.271 151.965 134.782 152.37 135.183C152.771 135.589 153.283 135.789 153.901 135.789C154.564 135.789 155.087 135.589 155.468 135.183C155.848 134.782 156.037 134.271 156.037 133.653V111.869C156.037 109.733 156.63 107.81 157.817 106.104C159.003 104.393 160.616 103.055 162.658 102.081C164.699 101.108 166.999 100.621 169.565 100.621C172.13 100.621 174.512 101.132 176.579 102.151C178.645 103.174 180.282 104.704 181.493 106.742C182.704 108.784 183.31 111.37 183.31 114.504V133.657C183.31 134.275 183.51 134.787 183.915 135.188C184.316 135.593 184.828 135.793 185.446 135.793C186.064 135.793 186.571 135.593 186.976 135.188C187.377 134.787 187.582 134.275 187.582 133.657V114.504C187.582 110.563 186.8 107.253 185.233 104.573L185.229 104.565Z" fill="white"/>
<path d="M228.074 105.587C226.552 102.707 224.435 100.447 221.72 98.806C219.008 97.1651 215.891 96.3447 212.371 96.3447C208.851 96.3447 205.635 97.2021 202.879 98.9127C200.118 100.627 197.952 102.97 196.385 105.944C194.814 108.918 194.031 112.355 194.031 116.256C194.031 120.157 194.863 123.538 196.529 126.536C198.194 129.535 200.491 131.877 203.416 133.567C206.341 135.257 209.684 136.102 213.446 136.102C215.681 136.102 218.024 135.651 220.477 134.745C222.926 133.842 224.911 132.698 226.437 131.319C226.913 130.893 227.139 130.417 227.114 129.892C227.089 129.371 226.815 128.891 226.294 128.464C225.912 128.132 225.449 127.976 224.903 128.001C224.357 128.025 223.89 128.226 223.512 128.608C222.417 129.654 220.932 130.499 219.049 131.143C217.171 131.787 215.304 132.107 213.446 132.107C210.496 132.107 207.879 131.43 205.594 130.072C203.31 128.714 201.525 126.848 200.241 124.469C199.138 122.426 198.51 120.116 198.354 117.544H228.291C228.911 117.544 229.407 117.364 229.789 117.011C230.17 116.654 230.359 116.166 230.359 115.547C230.359 111.789 229.596 108.471 228.074 105.591V105.587ZM200.13 107.978C201.345 105.599 203.01 103.733 205.127 102.375C207.243 101.017 209.66 100.34 212.371 100.34C215.226 100.34 217.712 101.017 219.829 102.375C221.945 103.733 223.578 105.599 224.718 107.978C225.559 109.734 226.064 111.687 226.232 113.832H198.44C198.678 111.678 199.236 109.726 200.126 107.978H200.13Z" fill="white"/>
<path d="M311.33 97.7826C311.019 97.1213 310.444 96.7866 309.591 96.7866C308.643 96.7866 307.978 97.2112 307.603 98.0644L297.744 127.778L288.425 98.4929C288.237 97.9745 287.963 97.5582 287.608 97.252C287.253 96.9459 286.816 96.7907 286.294 96.7907C285.771 96.7907 285.322 96.9459 284.943 97.252C284.563 97.5623 284.302 97.9745 284.163 98.4929L274.95 128.305L264.916 98.0685C264.728 97.6439 264.442 97.3214 264.063 97.1091C263.683 96.8969 263.303 96.7907 262.928 96.7907C262.218 96.7907 261.72 97.0397 261.438 97.5378C261.152 98.0358 261.107 98.8032 261.295 99.8482L272.802 134.297C272.945 134.722 273.194 135.056 273.55 135.293C273.905 135.53 274.317 135.648 274.795 135.648C275.219 135.648 275.611 135.542 275.966 135.33C276.321 135.118 276.595 134.775 276.783 134.301L286.131 104.224L295.817 134.301C295.911 134.726 296.148 135.061 296.528 135.297C296.907 135.534 297.332 135.652 297.805 135.652C298.328 135.652 298.765 135.534 299.12 135.297C299.475 135.061 299.724 134.73 299.867 134.301L311.301 99.8523C311.632 99.142 311.644 98.4562 311.338 97.7908L311.33 97.7826Z" fill="white"/>
<path d="M333.498 136.102C329.705 136.102 326.304 135.236 323.291 133.507C320.279 131.778 317.908 129.407 316.178 126.394C314.445 123.381 313.583 120.005 313.583 116.26C313.583 112.516 314.449 109.066 316.178 106.053C317.908 103.045 320.279 100.674 323.291 98.9405C326.3 97.2114 329.705 96.3447 333.498 96.3447C337.292 96.3447 340.681 97.2114 343.669 98.9405C346.657 100.674 349.015 103.045 350.745 106.053C352.474 109.066 353.34 112.467 353.34 116.26C353.34 120.054 352.474 123.385 350.745 126.394C349.011 129.407 346.653 131.778 343.669 133.507C340.681 135.24 337.292 136.102 333.498 136.102ZM333.498 132.121C336.487 132.121 339.152 131.422 341.502 130.024C343.849 128.626 345.7 126.729 347.049 124.334C348.402 121.938 349.077 119.224 349.077 116.191C349.077 113.158 348.402 110.513 347.049 108.118C345.696 105.722 343.849 103.825 341.502 102.427C339.156 101.029 336.487 100.33 333.498 100.33C330.51 100.33 327.902 101.029 325.531 102.427C323.16 103.825 321.288 105.722 319.911 108.118C318.533 110.513 317.846 113.227 317.846 116.26C317.846 119.293 318.533 121.938 319.911 124.334C321.284 126.729 323.156 128.626 325.531 130.024C327.902 131.422 330.555 132.121 333.498 132.121Z" fill="white"/>
<path d="M380.386 97.4275C379.39 97.003 377.994 96.7866 376.194 96.7866C373.54 96.7866 371.128 97.4521 368.948 98.7747C366.952 99.9911 365.294 101.64 363.976 103.71V99.342C363.976 98.6807 363.788 98.1583 363.408 97.7786C363.029 97.399 362.506 97.2112 361.845 97.2112C361.229 97.2112 360.718 97.4031 360.318 97.7786C359.914 98.1583 359.714 98.6807 359.714 99.342V133.934C359.714 134.55 359.914 135.061 360.318 135.461C360.718 135.865 361.229 136.065 361.845 136.065C362.506 136.065 363.029 135.865 363.408 135.461C363.788 135.061 363.976 134.55 363.976 133.934V112.34C363.976 110.115 364.498 108.139 365.539 106.408C366.58 104.681 368.025 103.318 369.87 102.326C371.715 101.334 373.822 100.836 376.194 100.836C377.092 100.836 377.908 100.897 378.643 101.016C379.378 101.134 380.002 101.122 380.525 100.979C381.047 100.836 381.378 100.412 381.521 99.7013C381.758 98.6114 381.378 97.8562 380.386 97.4275Z" fill="white"/>
<path d="M417.162 132.349L401.65 113.367L416.737 99.6758C417.211 99.2961 417.447 98.8717 417.447 98.3981C417.447 97.9246 417.235 97.4511 416.807 96.9776C416.382 96.504 415.941 96.2673 415.492 96.2673C415.043 96.2673 414.582 96.455 414.108 96.8346L392.089 116.87V82.1309C392.089 81.4696 391.902 80.947 391.522 80.5674C391.142 80.1877 390.62 80 389.958 80C389.342 80 388.832 80.1877 388.432 80.5674C388.028 80.947 387.828 81.4696 387.828 82.1309V133.341C387.828 133.957 388.028 134.468 388.432 134.868C388.832 135.272 389.342 135.472 389.958 135.472C390.62 135.472 391.142 135.272 391.522 134.868C391.902 134.468 392.089 133.957 392.089 133.341V122.038L398.727 116.012L414.108 134.831C414.488 135.305 414.925 135.578 415.423 135.647C415.921 135.717 416.407 135.541 416.88 135.113C417.403 134.688 417.672 134.235 417.697 133.761C417.721 133.288 417.541 132.814 417.166 132.341L417.162 132.349Z" fill="white"/>
<path d="M256.052 98.7672C255.696 98.412 255.234 98.2324 254.667 98.2324H245.246V86.9902C245.246 86.3289 245.058 85.8064 244.678 85.4267C244.298 85.0471 243.775 84.8594 243.113 84.8594C242.496 84.8594 241.986 85.0471 241.585 85.4267C241.181 85.8064 240.981 86.3289 240.981 86.9902V98.2324H235.404C234.836 98.2324 234.374 98.412 234.019 98.7672C233.664 99.1223 233.484 99.5836 233.484 100.151C233.484 100.718 233.664 101.18 234.019 101.535C234.374 101.89 234.836 102.07 235.404 102.07H240.981V124.125C240.981 126.448 241.373 128.481 242.153 130.232C242.933 131.983 244.024 133.359 245.421 134.351C246.819 135.347 248.416 135.841 250.218 135.841H251.639C252.301 135.841 252.824 135.641 253.204 135.237C253.584 134.837 253.772 134.326 253.772 133.71C253.772 133.049 253.604 132.526 253.274 132.147C252.943 131.767 252.514 131.579 251.995 131.579H250.218C248.747 131.579 247.554 130.881 246.627 129.485C245.703 128.089 245.242 126.301 245.242 124.121V102.065H254.663C255.23 102.065 255.692 101.886 256.048 101.531C256.403 101.176 256.579 100.714 256.579 100.147C256.579 99.5795 256.403 99.1182 256.048 98.7631L256.052 98.7672Z" fill="white"/>
<path d="M62.6073 14.4358C62.6073 16.5606 60.8848 18.2831 58.7599 18.2831C56.6351 18.2831 54.9126 16.5606 54.9126 14.4358C54.9126 12.3109 56.6351 10.5884 58.7599 10.5884C60.8848 10.5884 62.6073 12.3109 62.6073 14.4358Z" fill="#37D5C7"/>
<path d="M11.8919 102.576C11.8919 104.701 10.1694 106.423 8.04451 106.423C5.91967 106.423 4.19714 104.701 4.19714 102.576C4.19714 100.451 5.91967 98.7283 8.04451 98.7283C10.1694 98.7283 11.8919 100.451 11.8919 102.576Z" fill="#37D5C7"/>
<path d="M109.825 106.423C111.95 106.423 113.672 104.701 113.672 102.576C113.672 100.451 111.95 98.7283 109.825 98.7283C107.7 98.7283 105.978 100.451 105.978 102.576C105.978 104.701 107.7 106.423 109.825 106.423Z" fill="#37D5C7"/>
<path d="M48.9666 22.1305C48.9666 24.6417 46.9309 26.6774 44.4197 26.6774C41.9085 26.6774 39.8728 24.6417 39.8728 22.1305C39.8728 19.6193 41.9085 17.5836 44.4197 17.5836C46.9309 17.5836 48.9666 19.6193 48.9666 22.1305Z" fill="#37D5C7"/>
<path d="M57.7107 34.7219C60.2218 34.7219 62.2576 32.6862 62.2576 30.175C62.2576 27.6638 60.2218 25.6281 57.7107 25.6281C55.1995 25.6281 53.1637 27.6638 53.1637 30.175C53.1637 32.6862 55.1995 34.7219 57.7107 34.7219Z" fill="#37D5C7"/>
<path d="M61.9078 50.4612C61.9078 52.9724 59.8721 55.0081 57.3609 55.0081C54.8497 55.0081 52.814 52.9724 52.814 50.4612C52.814 47.95 54.8497 45.9143 57.3609 45.9143C59.8721 45.9143 61.9078 47.95 61.9078 50.4612Z" fill="#37D5C7"/>
<path d="M58.9348 77.7426C61.446 77.7426 63.4817 75.7069 63.4817 73.1957C63.4817 70.6845 61.446 68.6488 58.9348 68.6488C56.4236 68.6488 54.3879 70.6845 54.3879 73.1957C54.3879 75.7069 56.4236 77.7426 58.9348 77.7426Z" fill="#37D5C7"/>
<path d="M26.5819 96.28C26.5819 98.7911 24.5462 100.827 22.035 100.827C19.5238 100.827 17.4881 98.7911 17.4881 96.28C17.4881 93.7688 19.5238 91.733 22.035 91.733C24.5462 91.733 26.5819 93.7688 26.5819 96.28Z" fill="#37D5C7"/>
<path d="M7.69475 91.733C10.2059 91.733 12.2417 89.6973 12.2417 87.1861C12.2417 84.675 10.2059 82.6393 7.69475 82.6393C5.18357 82.6393 3.14785 84.675 3.14785 87.1861C3.14785 89.6973 5.18357 91.733 7.69475 91.733Z" fill="#37D5C7"/>
<path d="M26.5819 111.32C26.5819 113.831 24.5462 115.867 22.035 115.867C19.5238 115.867 17.4881 113.831 17.4881 111.32C17.4881 108.809 19.5238 106.773 22.035 106.773C24.5462 106.773 26.5819 108.809 26.5819 111.32Z" fill="#37D5C7"/>
<path d="M96.8839 98.0288C99.3951 98.0288 101.431 95.993 101.431 93.4819C101.431 90.9707 99.3951 88.935 96.8839 88.935C94.3728 88.935 92.337 90.9707 92.337 93.4819C92.337 95.993 94.3728 98.0288 96.8839 98.0288Z" fill="#37D5C7"/>
<path d="M100.731 109.921C100.731 112.432 98.6956 114.468 96.1844 114.468C93.6732 114.468 91.6375 112.432 91.6375 109.921C91.6375 107.409 93.6732 105.374 96.1844 105.374C98.6956 105.374 100.731 107.409 100.731 109.921Z" fill="#37D5C7"/>
<path d="M110.525 90.5089C113.036 90.5089 115.072 88.4732 115.072 85.962C115.072 83.4508 113.036 81.4151 110.525 81.4151C108.013 81.4151 105.978 83.4508 105.978 85.962C105.978 88.4732 108.013 90.5089 110.525 90.5089Z" fill="#37D5C7"/>
<path d="M83.9428 82.989C83.9428 85.5002 81.9071 87.5359 79.3959 87.5359C76.8847 87.5359 74.849 85.5002 74.849 82.989C74.849 80.4778 76.8847 78.4421 79.3959 78.4421C81.9071 78.4421 83.9428 80.4778 83.9428 82.989Z" fill="#37D5C7"/>
<path d="M71.5262 48.3626C74.7135 48.3626 77.2973 45.7788 77.2973 42.5916C77.2973 39.4043 74.7135 36.8205 71.5262 36.8205C68.339 36.8205 65.7552 39.4043 65.7552 42.5916C65.7552 45.7788 68.339 48.3626 71.5262 48.3626Z" fill="#37D5C7"/>
<path d="M49.3164 42.5916C49.3164 45.7788 46.7326 48.3626 43.5453 48.3626C40.358 48.3626 37.7742 45.7788 37.7742 42.5916C37.7742 39.4043 40.358 36.8205 43.5453 36.8205C46.7326 36.8205 49.3164 39.4043 49.3164 42.5916Z" fill="#37D5C7"/>
<path d="M25.5326 38.9191C29.396 38.9191 32.5278 35.7872 32.5278 31.9238C32.5278 28.0605 29.396 24.9286 25.5326 24.9286C21.6692 24.9286 18.5374 28.0605 18.5374 31.9238C18.5374 35.7872 21.6692 38.9191 25.5326 38.9191Z" fill="#37D5C7"/>
<path d="M14.69 67.2497C14.69 71.1131 11.5581 74.245 7.69475 74.245C3.83139 74.245 0.699523 71.1131 0.699523 67.2497C0.699523 63.3864 3.83139 60.2545 7.69475 60.2545C11.5581 60.2545 14.69 63.3864 14.69 67.2497Z" fill="#37D5C7"/>
<path d="M98.283 54.6583C98.283 54.0917 98.2095 53.5426 98.0801 53.011L104.138 48.8908C105.579 50.4997 107.671 51.5105 110 51.5105C114.348 51.5105 117.87 47.9884 117.87 43.6408C117.87 39.2933 114.348 35.7712 110 35.7712C107.908 35.7712 106.009 36.5896 104.6 37.9187L96.09 33.0081C96.1459 32.6548 96.1809 32.2946 96.1809 31.9238C96.1809 28.059 93.0505 24.9286 89.1857 24.9286C85.3208 24.9286 82.1905 28.059 82.1905 31.9238C82.1905 35.7887 85.3208 38.9191 89.1857 38.9191C91.1304 38.9191 92.8897 38.1251 94.1558 36.845L102.396 41.6017C102.221 42.2523 102.127 42.9378 102.127 43.6408C102.127 44.1025 102.169 44.5502 102.246 44.9909L95.8347 49.3524C94.6105 48.3032 93.0226 47.6631 91.2843 47.6631C87.4194 47.6631 84.289 50.7935 84.289 54.6583C84.289 58.5232 87.4194 61.6536 91.2843 61.6536C95.1491 61.6536 98.2795 58.5232 98.2795 54.6583H98.283Z" fill="#37D5C7"/>
<path d="M118.219 64.8014C118.219 68.6648 115.088 71.7966 111.224 71.7966C107.361 71.7966 104.229 68.6648 104.229 64.8014C104.229 60.9381 107.361 57.8062 111.224 57.8062C115.088 57.8062 118.219 60.9381 118.219 64.8014Z" fill="#37D5C7"/>
<path d="M81.372 113.789V104.923C83.4461 104.048 84.9046 101.995 84.9046 99.6027C84.9046 96.4164 82.3199 93.8316 79.1335 93.8316C77.7135 93.8316 76.4124 94.3493 75.4051 95.1992L64.6954 91.044C64.608 87.9311 62.0652 85.4338 58.9313 85.4338C57.1685 85.4338 55.5946 86.2243 54.5348 87.4694L44.2623 84.6259C43.9755 83.5381 43.304 82.6078 42.3946 81.9992L43.958 69.9849C46.7841 69.6106 48.9666 67.1973 48.9666 64.2698C48.9666 61.0834 46.3819 58.4987 43.1955 58.4987C41.9854 58.4987 40.8661 58.8729 39.9393 59.506L33.1574 55.5922C33.1994 55.2844 33.2273 54.9731 33.2273 54.6513C33.2273 50.7865 30.097 47.6561 26.2321 47.6561C22.3673 47.6561 19.2369 50.7865 19.2369 54.6513C19.2369 58.5162 22.3673 61.6466 26.2321 61.6466C28.2258 61.6466 30.02 60.8071 31.2967 59.4675L37.5504 63.0771C37.47 63.4618 37.428 63.8605 37.428 64.2663C37.428 66.1725 38.3549 67.8548 39.7784 68.9076L38.131 81.5795C36.4871 82.265 35.3329 83.8844 35.3329 85.7766C35.3329 88.2879 37.3685 90.3235 39.8798 90.3235C41.2299 90.3235 42.4401 89.7324 43.2725 88.795L53.1882 91.5372C53.3666 94.5661 55.8709 96.969 58.9418 96.969C60.6417 96.969 62.1631 96.231 63.2194 95.0593L73.3975 99.0081C73.38 99.2005 73.3695 99.3928 73.3695 99.5922C73.3695 102.055 74.9154 104.153 77.0909 104.982V113.716C74.2299 114.593 72.1453 117.255 72.1453 120.403C72.1453 124.268 75.2757 127.398 79.1405 127.398C83.0054 127.398 86.1358 124.268 86.1358 120.403C86.1358 117.325 84.1421 114.716 81.379 113.779L81.372 113.789Z" fill="#37D5C7"/>
<path d="M65.93 110.62C65.93 114.484 62.7982 117.615 58.9348 117.615C55.0715 117.615 51.9396 114.484 51.9396 110.62C51.9396 106.757 55.0715 103.625 58.9348 103.625C62.7982 103.625 65.93 106.757 65.93 110.62Z" fill="#37D5C7"/>
<path d="M39.5231 129.857C43.3864 129.857 46.5183 126.725 46.5183 122.862C46.5183 118.998 43.3864 115.867 39.5231 115.867C35.6597 115.867 32.5278 118.998 32.5278 122.862C32.5278 126.725 35.6597 129.857 39.5231 129.857Z" fill="#37D5C7"/>
<path d="M66.8045 132.131C66.8045 136.477 63.2811 140 58.9348 140C54.5885 140 51.0652 136.477 51.0652 132.131C51.0652 127.784 54.5885 124.261 58.9348 124.261C63.2811 124.261 66.8045 127.784 66.8045 132.131Z" fill="#37D5C7"/>
<path d="M7.86963 51.5105C12.2159 51.5105 15.7393 47.9871 15.7393 43.6408C15.7393 39.2946 12.2159 35.7712 7.86963 35.7712C3.52336 35.7712 0 39.2946 0 43.6408C0 47.9871 3.52336 51.5105 7.86963 51.5105Z" fill="#37D5C7"/>
<path d="M31.4785 77.9175C31.4785 81.1047 28.8947 83.6885 25.7075 83.6885C22.5202 83.6885 19.9364 81.1047 19.9364 77.9175C19.9364 74.7302 22.5202 72.1464 25.7075 72.1464C28.8947 72.1464 31.4785 74.7302 31.4785 77.9175Z" fill="#37D5C7"/>
<path d="M39.6979 107.822C42.8852 107.822 45.469 105.238 45.469 102.051C45.469 98.8637 42.8852 96.28 39.6979 96.28C36.5107 96.28 33.9269 98.8637 33.9269 102.051C33.9269 105.238 36.5107 107.822 39.6979 107.822Z" fill="#37D5C7"/>
<path d="M98.9825 75.4691C98.9825 78.6564 96.3987 81.2402 93.2114 81.2402C90.0242 81.2402 87.4404 78.6564 87.4404 75.4691C87.4404 72.2819 90.0242 69.6981 93.2114 69.6981C96.3987 69.6981 98.9825 72.2819 98.9825 75.4691Z" fill="#37D5C7"/>
<path d="M74.3243 70.0478C77.5116 70.0478 80.0954 67.464 80.0954 64.2768C80.0954 61.0895 77.5116 58.5057 74.3243 58.5057C71.137 58.5057 68.5533 61.0895 68.5533 64.2768C68.5533 67.464 71.137 70.0478 74.3243 70.0478Z" fill="#37D5C7"/>
<path d="M76.9475 22.1305C76.9475 24.6417 74.9118 26.6774 72.4006 26.6774C69.8895 26.6774 67.8537 24.6417 67.8537 22.1305C67.8537 19.6193 69.8895 17.5836 72.4006 17.5836C74.9118 17.5836 76.9475 19.6193 76.9475 22.1305Z" fill="#37D5C7"/>
<path fill-rule="evenodd" clip-rule="evenodd" d="M209.095 69.7531C205.247 67.5231 202.195 64.4227 199.937 60.484V60.4679C197.729 56.5077 196.616 51.994 196.573 46.9645C196.53 41.935 197.487 37.3675 199.491 33.4235C201.544 29.4364 204.393 26.2768 208.025 23.9663C211.68 21.6396 215.888 20.4735 220.595 20.4305C225.238 20.3876 229.35 21.4408 232.88 23.6439C236.443 25.7717 239.211 28.7701 241.167 32.6067C243.118 36.4433 244.101 40.7904 244.15 45.6212C244.161 46.8893 243.774 48.0392 242.908 48.9419L242.881 48.9688L242.855 48.9956C241.984 49.8124 240.882 50.1778 239.679 50.1886L205.93 50.5056C206.279 52.4454 206.897 54.2132 207.784 55.8199C209.267 58.3938 211.239 60.398 213.722 61.8542C216.183 63.2997 219.032 64.0251 222.32 63.9928C224.26 63.9767 226.206 63.6275 228.162 62.9397C230.199 62.1874 231.741 61.2954 232.843 60.3013L232.87 60.2744C233.73 59.5382 234.745 59.1514 235.863 59.1299C236.965 59.0493 238.002 59.3341 238.872 60.0326L238.948 60.0971C239.904 60.9783 240.528 62.0799 240.555 63.3803C240.646 64.6914 240.108 65.809 239.136 66.6526C237.083 68.4635 234.503 69.9573 231.429 71.1609L231.408 71.1717C228.323 72.3162 225.319 72.9127 222.401 72.9396C217.478 72.9879 213.039 71.9401 209.116 69.7639L209.095 69.7531ZM228.35 31.4084C226.265 30.049 223.728 29.3558 220.681 29.3827C217.586 29.4095 214.936 30.1833 212.685 31.6556C210.417 33.1387 208.649 35.186 207.381 37.8404C206.779 39.1247 206.327 40.511 206.032 41.9994L234.869 41.7308C234.573 40.1134 234.095 38.6142 233.423 37.2225C232.225 34.7185 230.537 32.7948 228.361 31.4192L228.345 31.4084H228.35Z" fill="white"/>
<path d="M263.175 23.0454H263.185C266.2 21.2413 269.526 20.35 273.142 20.35C275.92 20.35 278.241 20.7473 279.982 21.6655C280.885 22.1433 281.643 22.8038 282.078 23.7059C282.524 24.624 282.572 25.6227 282.341 26.6161L282.33 26.6483C282.04 27.7598 281.46 28.7639 280.423 29.3062C279.601 29.7626 278.655 29.8914 277.677 29.8216H277.666C276.919 29.7625 276.054 29.7035 275.066 29.6444H275.028C271.933 29.3599 269.236 29.7035 266.904 30.627H266.888C264.609 31.4969 262.82 32.8285 261.471 34.6219C260.209 36.3777 259.559 38.4825 259.559 41.0115V67.6868C259.559 69.0238 259.182 70.248 258.285 71.1715C257.382 72.0951 256.179 72.4709 254.868 72.4709C253.557 72.4709 252.358 72.0951 251.456 71.1715C250.553 70.248 250.182 69.0238 250.182 67.6868V25.6603C250.182 24.3233 250.553 23.0991 251.456 22.1756C252.358 21.252 253.562 20.8762 254.868 20.8762C256.173 20.8762 257.377 21.252 258.285 22.1756C259.188 23.0991 259.559 24.3233 259.559 25.6603V25.8321C260.655 24.769 261.864 23.8347 263.175 23.04V23.0454Z" fill="white"/>
<path d="M290.266 71.1768L290.223 71.1285C289.363 70.1674 288.998 68.9432 288.998 67.6008V45.8869C288.998 44.5499 289.369 43.3256 290.271 42.4021C291.206 41.4464 292.421 41.0114 293.769 41.0114C295.118 41.0114 296.22 41.4464 297.095 42.4021C298.046 43.3095 298.46 44.5338 298.46 45.8869V67.6008C298.46 68.9807 298.036 70.2157 297.095 71.1715C296.209 72.0789 295.043 72.4708 293.769 72.4708C292.496 72.4708 291.26 72.0896 290.314 71.2144L290.266 71.1715V71.1768Z" fill="white"/>
<path fill-rule="evenodd" clip-rule="evenodd" d="M379.107 69.5176L379.091 69.5069C375.335 67.1819 372.342 64.0355 370.139 60.0836L370.129 60.0675C367.963 56.0941 366.894 51.6321 366.894 46.7191C366.894 41.8061 367.995 37.2475 370.225 33.2687L370.236 33.2526C372.509 29.3007 375.588 26.1811 379.467 23.9205C383.363 21.5848 387.742 20.4304 392.567 20.4304C397.392 20.4304 401.745 21.5848 405.581 23.9205C409.461 26.1811 412.513 29.3007 414.732 33.258C417.016 37.2313 418.176 41.7255 418.235 46.6976V67.6813C418.235 69.0237 417.795 70.2264 416.87 71.1661L416.849 71.1875L416.828 71.209C415.898 72.0681 414.737 72.4654 413.458 72.4654C412.18 72.4654 411.019 72.0735 410.095 71.209L410.073 71.1875L410.046 71.1661C409.122 70.2264 408.682 69.0237 408.682 67.6813V66.049C407.279 67.4719 405.689 68.7122 403.921 69.7753H403.91C400.364 71.8801 396.334 72.9111 391.863 72.9111C387.151 72.9111 382.89 71.7835 379.107 69.5069V69.5176ZM400.864 61.6783H400.874C403.341 60.191 405.264 58.1721 406.661 55.5948V55.584C408.117 52.953 408.848 50.0105 408.848 46.7191C408.848 43.4276 408.112 40.4315 406.672 37.8649L406.661 37.8434C405.264 35.2661 403.341 33.2472 400.874 31.7706L400.842 31.7545C398.456 30.2404 395.711 29.4672 392.557 29.4672C389.402 29.4672 386.721 30.2404 384.266 31.7599L384.25 31.7706C381.778 33.2526 379.817 35.2769 378.355 37.8649C376.915 40.4261 376.179 43.3632 376.179 46.7191C376.179 50.075 376.91 52.9476 378.36 55.5786C379.817 58.1667 381.778 60.1856 384.25 61.6675C386.705 63.1388 389.462 63.8851 392.557 63.8851C395.651 63.8851 398.472 63.1388 400.858 61.6729L400.864 61.6783Z" fill="white"/>
<path d="M165.709 69.3459C166.129 70.2802 166.698 71.0695 167.456 71.6333C168.235 72.2078 169.127 72.4763 170.094 72.4763C171.061 72.4763 172.023 72.2185 172.834 71.6547C173.635 71.0963 174.231 70.2963 174.656 69.3459L193.79 27.2497C194.306 26.1812 194.343 25.0429 193.93 23.9314C193.511 22.7501 192.705 21.8588 191.598 21.295L191.56 21.2789L191.522 21.2628C190.394 20.7688 189.212 20.7312 188.046 21.1232C186.837 21.483 185.956 22.3152 185.451 23.4965L170.11 57.8607L154.528 23.4374L154.506 23.3998C153.953 22.3528 153.125 21.5796 152.045 21.1554C150.89 20.7044 149.708 20.8171 148.601 21.3809C147.478 21.9179 146.613 22.7555 146.172 23.9206C145.742 25.059 145.796 26.2188 146.296 27.3249L165.704 69.3513L165.709 69.3459Z" fill="white"/>
<path fill-rule="evenodd" clip-rule="evenodd" d="M311.044 60.0999C313.323 64.0518 316.402 67.1982 320.27 69.5178L320.286 69.5286C324.182 71.7998 328.556 72.9221 333.376 72.9221C338.195 72.9221 342.456 71.7998 346.293 69.5232C350.172 67.2627 353.224 64.1753 355.449 60.2717C357.727 56.3091 358.92 51.8793 359.044 47.0253V4.87544C359.044 3.51161 358.624 2.282 357.657 1.36919C356.738 0.445655 355.572 0 354.267 0C352.961 0 351.795 0.440286 350.876 1.36919C349.909 2.282 349.49 3.51161 349.49 4.87544V27.3035C347.883 25.6819 346.014 24.3073 343.886 23.1798C340.527 21.3381 336.777 20.4306 332.672 20.4306C327.954 20.4306 323.688 21.5904 319.905 23.9315C316.144 26.1974 313.151 29.317 310.937 33.2689L310.926 33.285C308.761 37.2584 307.697 41.7204 307.697 46.6334C307.697 51.5464 308.798 56.105 311.023 60.0838L311.034 60.0999H311.044ZM347.491 37.8705C348.942 40.4371 349.673 43.3473 349.673 46.6334C349.673 49.9195 348.937 52.9209 347.491 55.4875L347.48 55.509C346.083 58.0917 344.154 60.1428 341.672 61.6839C339.286 63.1443 336.535 63.8907 333.376 63.8907C330.216 63.8907 327.524 63.1497 325.074 61.6785C322.592 60.1375 320.63 58.081 319.174 55.4875C317.734 52.9263 316.998 49.9893 316.998 46.6334C316.998 43.2775 317.734 40.4371 319.174 37.8705L319.185 37.8598C320.641 35.2126 322.602 33.1615 325.063 31.6849C327.524 30.2137 330.281 29.4674 333.376 29.4674C336.471 29.4674 339.286 30.2137 341.677 31.6796H341.688C344.149 33.1615 346.073 35.2019 347.475 37.8383L347.486 37.8705H347.491Z" fill="white"/>
<path d="M290.266 35.6367L290.223 35.5884C289.363 34.6273 288.998 33.4031 288.998 32.0607V26.7503C288.998 25.4134 289.369 24.1891 290.271 23.2656C291.206 22.3098 292.421 21.8749 293.769 21.8749C295.118 21.8749 296.22 22.3098 297.095 23.2656C298.046 24.173 298.46 25.3972 298.46 26.7503V32.0607C298.46 33.4406 298.036 34.6756 297.095 35.6313C296.209 36.5388 295.043 36.9308 293.769 36.9308C292.496 36.9308 291.26 36.5495 290.314 35.6743L290.266 35.6313V35.6367Z" fill="#37D5C7"/>
</svg>
