<svg width="21" height="20" viewBox="0 0 21 20" fill="none" xmlns="http://www.w3.org/2000/svg">
<g clip-path="url(#clip0_3251_76235)">
<g clip-path="url(#clip1_3251_76235)">
<path d="M17.6607 3.69037C16.3467 3.08877 14.9595 2.66198 13.5345 2.4209C13.3395 2.76947 13.1631 3.12811 13.006 3.49531C11.4881 3.26659 9.94461 3.26659 8.42677 3.49531C8.26956 3.12815 8.09313 2.76951 7.89822 2.4209C6.47237 2.66402 5.08426 3.09182 3.76892 3.69351C1.15762 7.55698 0.44974 11.3245 0.803681 15.0385C2.33292 16.1684 4.04458 17.0277 5.86424 17.579C6.27398 17.0279 6.63654 16.4433 6.94809 15.8313C6.35635 15.6103 5.78522 15.3377 5.24131 15.0165C5.38446 14.9127 5.52446 14.8057 5.65974 14.7019C7.2424 15.4462 8.9698 15.8321 10.7187 15.8321C12.4677 15.8321 14.1951 15.4462 15.7777 14.7019C15.9146 14.8136 16.0546 14.9205 16.1962 15.0165C15.6512 15.3382 15.079 15.6114 14.4862 15.8329C14.7974 16.4446 15.16 17.0287 15.5701 17.579C17.3913 17.0299 19.1043 16.171 20.6338 15.0401C21.0491 10.733 19.9243 7.00011 17.6607 3.69037ZM7.39641 12.7544C6.4101 12.7544 5.59525 11.8593 5.59525 10.7582C5.59525 9.65703 6.38178 8.75409 7.39327 8.75409C8.40475 8.75409 9.21331 9.65703 9.196 10.7582C9.1787 11.8593 8.4016 12.7544 7.39641 12.7544ZM14.0411 12.7544C13.0532 12.7544 12.2415 11.8593 12.2415 10.7582C12.2415 9.65703 13.028 8.75409 14.0411 8.75409C15.0541 8.75409 15.8564 9.65703 15.8391 10.7582C15.8218 11.8593 15.0462 12.7544 14.0411 12.7544Z" fill="white"/>
</g>
</g>
<defs>
<clipPath id="clip0_3251_76235">
<rect width="20" height="20" fill="white" transform="translate(0.71875)"/>
</clipPath>
<clipPath id="clip1_3251_76235">
<rect width="20" height="15.1581" fill="white" transform="translate(0.71875 2.4209)"/>
</clipPath>
</defs>
</svg>
