<svg width="20" height="20" viewBox="0 0 20 20" fill="none" xmlns="http://www.w3.org/2000/svg">
<path fill-rule="evenodd" clip-rule="evenodd" d="M6.76698 2.43456C6.71097 2.42573 6.65402 2.42439 6.59765 2.43056C5.47632 2.5519 3.76965 3.15723 2.76165 3.7039C2.69507 3.74021 2.63548 3.78806 2.58565 3.84523C2.16698 4.3239 1.78698 5.1039 1.48965 5.84256C1.18298 6.5999 0.92965 7.3999 0.786983 7.97856C0.314983 9.85856 0.05765 12.1159 0.0229833 14.2572C0.0218804 14.3641 0.0475499 14.4695 0.09765 14.5639C0.49765 15.3279 1.36032 16.0359 2.22432 16.5532C3.09765 17.0772 4.11765 17.4906 4.93898 17.5706C5.03739 17.58 5.13664 17.5664 5.22894 17.531C5.32124 17.4956 5.40409 17.4393 5.47098 17.3666C5.67632 17.1439 6.02565 16.6239 6.28965 16.2199C6.40965 16.0359 6.52298 15.8599 6.61098 15.7199C7.49365 15.8799 8.60032 15.9732 10.0003 15.9732C11.3977 15.9732 12.5043 15.8799 13.387 15.7199C13.475 15.8612 13.587 16.0359 13.707 16.2186C13.971 16.6239 14.3203 17.1439 14.527 17.3666C14.5939 17.4393 14.6767 17.4956 14.769 17.531C14.8613 17.5664 14.9606 17.58 15.059 17.5706C15.8803 17.4906 16.899 17.0772 17.7723 16.5532C18.6363 16.0359 19.499 15.3279 19.9003 14.5639C19.95 14.4694 19.9752 14.364 19.9736 14.2572C19.9403 12.1159 19.6817 9.85723 19.2123 7.97723C19.0237 7.25114 18.7881 6.53808 18.507 5.84256C18.2097 5.1039 17.8297 4.32256 17.4123 3.84523C17.3621 3.78794 17.302 3.74008 17.235 3.7039C16.2283 3.15723 14.5217 2.5519 13.399 2.43056C13.3431 2.42451 13.2866 2.42585 13.231 2.43456C12.9797 2.48292 12.744 2.59185 12.5443 2.7519C12.0971 3.11194 11.7355 3.56692 11.4857 4.0839C10.9915 4.04514 10.496 4.02601 10.0003 4.02656C9.46432 4.02656 8.96832 4.04656 8.51098 4.08256C8.26101 3.56607 7.89941 3.11156 7.45232 2.7519C7.25303 2.59204 7.0178 2.48313 6.76698 2.43456ZM14.691 15.3839C14.8786 15.6729 15.0711 15.9587 15.2683 16.2412C15.7963 16.1212 16.4697 15.8412 17.115 15.4546C17.839 15.0212 18.4137 14.5212 18.691 14.0986C18.647 12.0906 18.399 10.0052 17.971 8.2879C17.7966 7.61902 17.5793 6.9621 17.3203 6.32123C17.0536 5.65723 16.767 5.09456 16.5177 4.7719C15.651 4.32256 14.2843 3.8479 13.3937 3.71856C13.3669 3.73482 13.341 3.75263 13.3163 3.7719C13.2058 3.85881 13.1048 3.95713 13.015 4.06523C12.9624 4.12782 12.9122 4.19231 12.8643 4.25856C13.271 4.33323 13.6336 4.42256 13.955 4.52123C14.867 4.80123 15.5243 5.1879 15.8456 5.6159C15.9475 5.75169 15.9912 5.92237 15.9672 6.09041C15.9432 6.25844 15.8534 6.41005 15.7177 6.5119C15.6504 6.56232 15.5739 6.59901 15.4925 6.61987C15.4111 6.64073 15.3263 6.64535 15.2431 6.63346C15.0751 6.60946 14.9235 6.51969 14.8217 6.3839C14.743 6.2799 14.4003 5.99723 13.579 5.7439C12.7857 5.50123 11.619 5.30656 10.0003 5.30656C8.38165 5.30656 7.21365 5.50123 6.42165 5.74523C5.60032 5.99856 5.25765 6.27856 5.17898 6.3839C5.12856 6.45113 5.06538 6.50778 4.99306 6.5506C4.92074 6.59342 4.84069 6.62158 4.75749 6.63346C4.58946 6.65747 4.41877 6.61374 4.28298 6.5119C4.21575 6.46147 4.1591 6.39829 4.11628 6.32597C4.07346 6.25365 4.0453 6.17361 4.03342 6.09041C4.00941 5.92237 4.05314 5.75169 4.15498 5.6159C4.47632 5.18656 5.13365 4.80256 6.04565 4.52256C6.36565 4.42256 6.72832 4.33456 7.13365 4.2599C7.08572 4.19291 7.03501 4.12797 6.98165 4.06523C6.89221 3.9572 6.79166 3.85889 6.68165 3.7719C6.6565 3.75259 6.63023 3.73478 6.60298 3.71856C5.71365 3.8479 4.34698 4.32256 3.48032 4.7719C3.22965 5.0959 2.94432 5.65723 2.67632 6.32123C2.39232 7.0279 2.15632 7.77056 2.02698 8.2879C1.59765 10.0052 1.34965 12.0906 1.30698 14.0986C1.58432 14.5226 2.15765 15.0212 2.88165 15.4559C3.52832 15.8426 4.20032 16.1226 4.72965 16.2412C4.92886 15.9601 5.12135 15.6742 5.30698 15.3839C4.26032 15.0119 3.69898 14.5012 3.33365 13.9546C3.28707 13.8845 3.25475 13.806 3.23852 13.7235C3.2223 13.6409 3.22248 13.556 3.23907 13.4736C3.25566 13.3911 3.28833 13.3127 3.33522 13.2429C3.3821 13.1731 3.44228 13.1131 3.51232 13.0666C3.58236 13.02 3.66088 12.9877 3.74341 12.9714C3.82594 12.9552 3.91086 12.9554 3.99332 12.972C4.07578 12.9886 4.15416 13.0212 4.22399 13.0681C4.29383 13.115 4.35374 13.1752 4.40032 13.2452C4.74698 13.7679 5.65898 14.6932 10.0003 14.6932C14.343 14.6932 15.2536 13.7679 15.6003 13.2452C15.6944 13.1038 15.8408 13.0055 16.0073 12.972C16.1738 12.9385 16.3469 12.9725 16.4883 13.0666C16.6298 13.1606 16.7281 13.307 16.7616 13.4736C16.7951 13.6401 16.761 13.8131 16.667 13.9546C16.3017 14.5012 15.739 15.0132 14.691 15.3839ZM5.44032 9.34923C5.76565 8.9999 6.20698 8.80256 6.66698 8.7999C7.12698 8.80256 7.56832 8.9999 7.89365 9.34923C8.21765 9.6999 8.40032 10.1732 8.40032 10.6666C8.40032 11.1599 8.21765 11.6332 7.89365 11.9839C7.56832 12.3332 7.12698 12.5306 6.66698 12.5332C6.43576 12.5308 6.20751 12.4808 5.99647 12.3862C5.78543 12.2917 5.59611 12.1548 5.44032 11.9839C5.11179 11.6241 4.93089 11.1538 4.93365 10.6666C4.93365 10.1732 5.11632 9.6999 5.44032 9.34923ZM13.3337 8.7999C12.8737 8.80256 12.4323 8.9999 12.107 9.34923C11.783 9.6999 11.6003 10.1732 11.6003 10.6666C11.6003 11.1599 11.783 11.6332 12.107 11.9839C12.4323 12.3332 12.8737 12.5306 13.3337 12.5332C13.7937 12.5306 14.235 12.3332 14.5603 11.9839C14.8843 11.6332 15.067 11.1599 15.067 10.6666C15.067 10.1732 14.8843 9.6999 14.5603 9.34923C14.4045 9.17835 14.2152 9.04139 14.0042 8.94688C13.7931 8.85237 13.5649 8.80234 13.3337 8.7999Z" fill="white"/>
</svg>
