<svg width="21" height="20" viewBox="0 0 21 20" fill="none" xmlns="http://www.w3.org/2000/svg">
<g clip-path="url(#clip0_3249_76196)">
<path d="M20.7188 10.0606C20.7188 4.53773 16.2416 0.0605469 10.7188 0.0605469C5.1959 0.0605469 0.71875 4.53773 0.71875 10.0606C0.71875 15.0519 4.37559 19.189 9.15625 19.9392V12.9513H6.61719V10.0606H9.15625V7.85748C9.15625 5.35121 10.6492 3.96683 12.9334 3.96683C14.0275 3.96683 15.1719 4.16214 15.1719 4.16214V6.6231H13.9109C12.6687 6.6231 12.2812 7.394 12.2812 8.18483V10.0606H15.0547L14.6113 12.9513H12.2812V19.9392C17.0619 19.189 20.7188 15.0521 20.7188 10.0606Z" fill="white"/>
</g>
<defs>
<clipPath id="clip0_3249_76196">
<rect width="20" height="20" fill="white" transform="translate(0.71875)"/>
</clipPath>
</defs>
</svg>
