<svg width="21" height="20" viewBox="0 0 21 20" fill="none" xmlns="http://www.w3.org/2000/svg">
<g clip-path="url(#clip0_3249_76191)">
<path d="M6.57717 0.0704259C5.51317 0.120626 4.78657 0.290426 4.15137 0.540026C3.49397 0.796226 2.93677 1.14003 2.38237 1.69643C1.82797 2.25283 1.48657 2.81043 1.23217 3.46883C0.985966 4.10543 0.819166 4.83263 0.772166 5.89723C0.725166 6.96183 0.714766 7.30403 0.719966 10.0196C0.725166 12.7352 0.737166 13.0756 0.788766 14.1424C0.839566 15.2062 1.00877 15.9326 1.25837 16.568C1.51497 17.2254 1.85837 17.7824 2.41497 18.337C2.97157 18.8916 3.52877 19.2322 4.18877 19.487C4.82477 19.7328 5.55217 19.9004 6.61657 19.947C7.68097 19.9936 8.02357 20.0044 10.7384 19.9992C13.4532 19.994 13.795 19.982 14.8616 19.9314C15.9282 19.8808 16.6508 19.7104 17.2864 19.462C17.9438 19.2048 18.5012 18.862 19.0554 18.3052C19.6096 17.7484 19.9508 17.1904 20.205 16.5316C20.4514 15.8956 20.6188 15.1682 20.665 14.1046C20.7116 13.0372 20.7226 12.6964 20.7174 9.98123C20.7122 7.26603 20.7 6.92563 20.6494 5.85923C20.5988 4.79283 20.4294 4.06863 20.18 3.43283C19.923 2.77543 19.58 2.21883 19.0236 1.66383C18.4672 1.10883 17.9088 0.767826 17.2502 0.514226C16.6138 0.268026 15.8868 0.100226 14.8224 0.0542259C13.758 0.00822589 13.4154 -0.00357411 10.6996 0.00162589C7.98377 0.00682589 7.64377 0.0184259 6.57717 0.0704259ZM6.69397 18.148C5.71897 18.1056 5.18957 17.9436 4.83677 17.808C4.36957 17.628 4.03677 17.4104 3.68517 17.0622C3.33357 16.714 3.11757 16.38 2.93517 15.9138C2.79817 15.561 2.63317 15.0322 2.58757 14.0572C2.53797 13.0034 2.52757 12.687 2.52177 10.0172C2.51597 7.34743 2.52617 7.03143 2.57237 5.97723C2.61397 5.00303 2.77697 4.47303 2.91237 4.12043C3.09237 3.65263 3.30917 3.32043 3.65817 2.96903C4.00717 2.61763 4.34017 2.40123 4.80677 2.21883C5.15917 2.08123 5.68797 1.91763 6.66257 1.87123C7.71717 1.82123 8.03317 1.81123 10.7026 1.80543C13.372 1.79963 13.6888 1.80963 14.7438 1.85603C15.718 1.89843 16.2482 2.05983 16.6004 2.19603C17.0678 2.37603 17.4004 2.59223 17.7518 2.94183C18.1032 3.29143 18.3198 3.62323 18.5022 4.09083C18.64 4.44223 18.8036 4.97083 18.8496 5.94603C18.8998 7.00063 18.9112 7.31683 18.916 9.98603C18.9208 12.6552 18.9114 12.9722 18.8652 14.026C18.8226 15.001 18.661 15.5306 18.5252 15.8838C18.3452 16.3508 18.1282 16.6838 17.779 17.035C17.4298 17.3862 17.0972 17.6026 16.6304 17.785C16.2784 17.9224 15.749 18.0864 14.7752 18.1328C13.7206 18.1824 13.4046 18.1928 10.7342 18.1986C8.06377 18.2044 7.74877 18.1936 6.69417 18.148M14.8462 4.65583C14.8466 4.89318 14.9173 5.12509 15.0495 5.32221C15.1817 5.51934 15.3694 5.67283 15.5889 5.76328C15.8083 5.85373 16.0497 5.87707 16.2824 5.83034C16.5151 5.78362 16.7287 5.66894 16.8962 5.50079C17.0638 5.33265 17.1777 5.11861 17.2235 4.88573C17.2694 4.65284 17.2452 4.41159 17.1539 4.19248C17.0627 3.97337 16.9085 3.78624 16.7109 3.65476C16.5133 3.52328 16.2811 3.45335 16.0438 3.45383C15.7256 3.45446 15.4207 3.58145 15.1961 3.80685C14.9715 4.03226 14.8456 4.33764 14.8462 4.65583ZM5.58417 10.0104C5.58977 12.8464 7.89297 15.1402 10.7284 15.1348C13.5638 15.1294 15.8592 12.8264 15.8538 9.99043C15.8484 7.15443 13.5446 4.86003 10.7088 4.86563C7.87297 4.87123 5.57877 7.17483 5.58417 10.0104ZM7.38537 10.0068C7.38406 9.34754 7.57829 8.70268 7.94348 8.15378C8.30867 7.60488 8.82843 7.1766 9.43703 6.9231C10.0456 6.6696 10.7157 6.60226 11.3626 6.7296C12.0095 6.85694 12.6041 7.17324 13.0712 7.6385C13.5383 8.10376 13.8569 8.69709 13.9868 9.34344C14.1167 9.9898 14.052 10.6602 13.8009 11.2698C13.5498 11.8794 13.1236 12.4008 12.5762 12.7682C12.0287 13.1355 11.3846 13.3323 10.7254 13.3336C10.2876 13.3345 9.85395 13.2492 9.44916 13.0825C9.04438 12.9158 8.6764 12.671 8.36624 12.3621C8.05609 12.0531 7.80982 11.6861 7.64152 11.282C7.47322 10.8779 7.38618 10.4446 7.38537 10.0068Z" fill="white"/>
</g>
<defs>
<clipPath id="clip0_3249_76191">
<rect width="20" height="20" fill="white" transform="translate(0.71875)"/>
</clipPath>
</defs>
</svg>
