<svg width="20" height="20" viewBox="0 0 20 20" fill="none" xmlns="http://www.w3.org/2000/svg">
<path d="M11.2028 9.62774C11.2028 12.5723 8.83197 14.9593 5.90756 14.9593C2.98314 14.9593 0.612305 12.5723 0.612305 9.62774C0.612305 6.68317 2.98314 4.29614 5.90756 4.29614C8.83197 4.29614 11.2028 6.68317 11.2028 9.62774Z" fill="white"/>
<path d="M17.0117 9.62786C17.0117 12.3997 15.8263 14.6466 14.364 14.6466C12.9017 14.6466 11.7163 12.3995 11.7163 9.62786C11.7163 6.85619 12.9017 4.60913 14.364 4.60913C15.8263 4.60913 17.0117 6.85619 17.0117 9.62786Z" fill="white"/>
<path d="M19.3878 9.62774C19.3878 12.1112 18.971 14.1244 18.4566 14.1244C17.9422 14.1244 17.5254 12.1112 17.5254 9.62774C17.5254 7.14428 17.9422 5.1311 18.4566 5.1311C18.971 5.1311 19.3878 7.14428 19.3878 9.62774Z" fill="white"/>
</svg>
