<svg width="20" height="20" viewBox="0 0 20 20" fill="none" xmlns="http://www.w3.org/2000/svg">
<path d="M18.9999 10.0369C18.9999 8.94696 18.1153 8.06236 17.0253 8.06236C16.4882 8.06236 16.0143 8.26771 15.6668 8.61523C14.3241 7.65165 12.4601 7.01979 10.4066 6.9408L11.307 2.72313L14.2293 3.33919C14.2609 4.08163 14.877 4.6819 15.6352 4.6819C16.4093 4.6819 17.0411 4.05004 17.0411 3.27601C17.0411 2.50198 16.4093 1.87012 15.6352 1.87012C15.0823 1.87012 14.6084 2.18605 14.3873 2.65994L11.1174 1.9649C11.0226 1.9491 10.9279 1.9649 10.8489 2.01229C10.7699 2.05968 10.7225 2.13866 10.6909 2.23344L9.69573 6.9408C7.59479 7.00399 5.715 7.62005 4.3565 8.61523C4.00898 8.28351 3.51929 8.06236 2.998 8.06236C1.90804 8.06236 1.02344 8.94696 1.02344 10.0369C1.02344 10.8425 1.49733 11.5218 2.19238 11.8377C2.16079 12.0273 2.14499 12.2326 2.14499 12.438C2.14499 15.4709 5.66762 17.9194 10.0275 17.9194C14.3873 17.9194 17.9099 15.4709 17.9099 12.438C17.9099 12.2326 17.8941 12.0431 17.8625 11.8535C18.5102 11.5376 18.9999 10.8425 18.9999 10.0369ZM5.49385 11.4428C5.49385 10.6688 6.12572 10.0369 6.89975 10.0369C7.67378 10.0369 8.30563 10.6688 8.30563 11.4428C8.30563 12.2168 7.67378 12.8487 6.89975 12.8487C6.12572 12.8487 5.49385 12.2168 5.49385 11.4428ZM13.3447 15.155C12.3811 16.1186 10.5487 16.1818 10.0117 16.1818C9.47458 16.1818 7.62638 16.1028 6.67859 15.155C6.53642 15.0128 6.53642 14.7759 6.67859 14.6337C6.82076 14.4915 7.05771 14.4915 7.19988 14.6337C7.80015 15.234 9.09546 15.4551 10.0275 15.4551C10.9595 15.4551 12.239 15.234 12.855 14.6337C12.9972 14.4915 13.2342 14.4915 13.3763 14.6337C13.4869 14.7917 13.4869 15.0128 13.3447 15.155ZM13.092 12.8487C12.318 12.8487 11.6861 12.2168 11.6861 11.4428C11.6861 10.6688 12.318 10.0369 13.092 10.0369C13.866 10.0369 14.4979 10.6688 14.4979 11.4428C14.4979 12.2168 13.866 12.8487 13.092 12.8487Z" fill="white"/>
</svg>
