<svg width="20" height="20" viewBox="0 0 20 20" fill="none" xmlns="http://www.w3.org/2000/svg">
<path d="M17.258 3.04549C17.258 3.04549 18.8769 2.41424 18.742 3.94728C18.697 4.57854 18.2923 6.78791 17.9775 9.17766L16.8983 16.2567C16.8983 16.2567 16.8084 17.2937 15.9989 17.4741C15.1895 17.6545 13.9753 16.8429 13.7505 16.6625C13.5706 16.5272 10.3778 14.4982 9.25358 13.5062C8.93879 13.2357 8.57904 12.6946 9.29854 12.0634L14.0203 7.55446C14.5599 7.01337 15.0995 5.75087 12.8511 7.28391L6.55546 11.5674C6.55546 11.5674 5.83596 12.0183 4.48692 11.6125L1.56393 10.7107C1.56393 10.7107 0.484671 10.0344 2.3284 9.358C6.82529 7.23879 12.3565 5.0745 17.258 3.04549Z" fill="white"/>
</svg>
