<svg width="21" height="20" viewBox="0 0 21 20" fill="none" xmlns="http://www.w3.org/2000/svg">
<g clip-path="url(#clip0_3249_76193)">
<path d="M7.48436 18.3408C14.7666 18.3408 18.7485 12.3064 18.7485 7.07664C18.7485 6.90423 18.7485 6.73182 18.7403 6.56762C19.512 6.00935 20.1852 5.3115 20.7189 4.51513C20.0128 4.82711 19.2493 5.04057 18.4447 5.13909C19.2657 4.64649 19.8897 3.87475 20.1852 2.94702C19.4217 3.39857 18.5761 3.72697 17.673 3.90759C16.9505 3.13585 15.9242 2.65967 14.783 2.65967C12.5992 2.65967 10.8258 4.43303 10.8258 6.61688C10.8258 6.92886 10.8587 7.23263 10.9326 7.51998C7.64035 7.35578 4.7258 5.77947 2.77182 3.38215C2.43521 3.96506 2.23817 4.64649 2.23817 5.36897C2.23817 6.74003 2.93602 7.95511 4.00332 8.66117C3.35473 8.64475 2.74719 8.46413 2.21354 8.16857C2.21354 8.18499 2.21354 8.20141 2.21354 8.21783C2.21354 10.139 3.5764 11.7317 5.39081 12.1012C5.06241 12.1915 4.70938 12.2407 4.34814 12.2407C4.09363 12.2407 3.84733 12.2161 3.60103 12.1668C4.10184 13.7432 5.56322 14.8843 7.29553 14.9172C5.94088 15.9763 4.2332 16.6084 2.37774 16.6084C2.05755 16.6084 1.74557 16.592 1.43359 16.551C3.1659 17.684 5.25124 18.3408 7.48436 18.3408Z" fill="white"/>
</g>
<defs>
<clipPath id="clip0_3249_76193">
<rect width="20" height="20" fill="white" transform="translate(0.71875)"/>
</clipPath>
</defs>
</svg>
