<svg width="20" height="20" viewBox="0 0 20 20" fill="none" xmlns="http://www.w3.org/2000/svg">
<path d="M16.3769 3.61905C15.5476 2.78558 14.5599 2.12475 13.4712 1.6751C12.3826 1.22544 11.2149 0.995968 10.0362 1.00005C5.09749 1.00005 1.07236 5.00504 1.07236 9.91903C1.07236 11.494 1.48844 13.024 2.26633 14.374L1 19L5.74874 17.758C7.0603 18.469 8.53467 18.847 10.0362 18.847C14.9749 18.847 19 14.842 19 9.92803C19 7.54303 18.0683 5.30204 16.3769 3.61905ZM10.0362 17.335C8.69749 17.335 7.38593 16.975 6.23719 16.3L5.96583 16.138L3.14372 16.876L3.89447 14.14L3.71357 13.861C2.96982 12.6793 2.5749 11.3133 2.57387 9.91903C2.57387 5.83304 5.9206 2.50305 10.0271 2.50305C12.0171 2.50305 13.8894 3.27705 15.2915 4.68104C15.9857 5.36861 16.5358 6.18643 16.91 7.08712C17.2842 7.9878 17.475 8.95343 17.4714 9.92803C17.4894 14.014 14.1427 17.335 10.0362 17.335ZM14.1246 11.791C13.8985 11.683 12.795 11.143 12.596 11.062C12.3879 10.99 12.2432 10.954 12.0894 11.17C11.9357 11.395 11.5106 11.899 11.3839 12.043C11.2573 12.196 11.1216 12.214 10.8955 12.097C10.6693 11.989 9.94573 11.746 9.09548 10.99C8.42613 10.396 7.98291 9.66703 7.84724 9.44203C7.7206 9.21703 7.82914 9.10003 7.94673 8.98303C8.04623 8.88403 8.17286 8.72203 8.28141 8.59603C8.38995 8.47003 8.43518 8.37103 8.50754 8.22703C8.5799 8.07403 8.54372 7.94803 8.48945 7.84003C8.43517 7.73203 7.98291 6.63404 7.80201 6.18404C7.6211 5.75204 7.43116 5.80604 7.29548 5.79704H6.86131C6.70754 5.79704 6.47236 5.85104 6.26432 6.07604C6.06533 6.30104 5.48643 6.84104 5.48643 7.93903C5.48643 9.03703 6.29146 10.099 6.4 10.243C6.50854 10.396 7.98291 12.646 10.2261 13.609C10.7598 13.843 11.1759 13.978 11.5015 14.077C12.0352 14.248 12.5236 14.221 12.9126 14.167C13.3467 14.104 14.2422 13.627 14.4231 13.105C14.6131 12.583 14.6131 12.142 14.5497 12.043C14.4864 11.944 14.3508 11.899 14.1246 11.791Z" fill="white"/>
</svg>
