<svg width="21" height="20" viewBox="0 0 21 20" fill="none" xmlns="http://www.w3.org/2000/svg">
<g clip-path="url(#clip0_3249_76198)">
<path d="M20.3006 5.15459C20.071 4.28868 19.3926 3.60686 18.5324 3.37504C16.9733 2.95459 10.7188 2.95459 10.7188 2.95459C10.7188 2.95459 4.4642 2.95459 2.90511 3.37504C2.04489 3.60686 1.36648 4.28868 1.13693 5.15459C0.71875 6.72504 0.71875 10 0.71875 10C0.71875 10 0.71875 13.275 1.13693 14.8455C1.36648 15.7114 2.04489 16.3932 2.90511 16.625C4.46534 17.0455 10.7188 17.0455 10.7188 17.0455C10.7188 17.0455 16.9733 17.0455 18.5324 16.625C19.3926 16.3932 20.071 15.7114 20.3006 14.8455C20.7188 13.2762 20.7188 10 20.7188 10C20.7188 10 20.7188 6.72504 20.3006 5.15459ZM8.6733 12.9739V7.02618L13.9006 10L8.6733 12.9739Z" fill="white"/>
</g>
<defs>
<clipPath id="clip0_3249_76198">
<rect width="20" height="20" fill="white" transform="translate(0.71875)"/>
</clipPath>
</defs>
</svg>
