<svg width="16" height="16" viewBox="0 0 16 16" fill="none" xmlns="http://www.w3.org/2000/svg">
<circle cx="8" cy="8" r="8" fill="#37D5C7"/>
<path d="M13.3553 7.98918C13.3553 9.04837 13.0412 10.0838 12.4528 10.9645C11.8643 11.8452 11.0279 12.5316 10.0493 12.9369C9.07077 13.3422 7.99398 13.4483 6.95514 13.2417C5.91629 13.035 4.96205 12.525 4.21309 11.776C3.46412 11.027 2.95407 10.0728 2.74743 9.03396C2.54079 7.99512 2.64685 6.91833 3.05219 5.93976C3.45752 4.96119 4.14394 4.12479 5.02463 3.53633C5.90531 2.94788 6.94072 2.63379 7.99992 2.63379" stroke="white" stroke-width="1.59109" stroke-linecap="round" stroke-linejoin="round"/>
<path d="M7.19942 10.7832L7.19985 10.7842C7.27281 10.9452 7.37158 11.0828 7.50378 11.1802C7.63868 11.2796 7.79456 11.3268 7.96169 11.3268C8.13475 11.3268 8.29685 11.2819 8.4375 11.1837C8.57662 11.0866 8.68005 10.9475 8.75438 10.7832L12.0793 3.47277C12.1691 3.28721 12.1751 3.08935 12.1031 2.89635C12.0304 2.69096 11.8906 2.53674 11.6981 2.43858L11.6919 2.43539L11.6855 2.43259C11.4896 2.34697 11.2844 2.34042 11.0812 2.40833C10.8708 2.47124 10.7176 2.61554 10.6307 2.82048L7.96558 8.78895L7.13476 6.92779L7.13134 6.92127C7.03532 6.73934 6.89173 6.60491 6.70376 6.53116C6.50283 6.45233 6.29764 6.47281 6.10521 6.57011C5.91026 6.66364 5.75955 6.80854 5.68318 7.01113C5.6088 7.20838 5.61758 7.41056 5.70435 7.60239L7.19942 10.7832Z" fill="white"/>
</svg>
