<svg width="32" height="32" viewBox="0 0 32 32" fill="none" xmlns="http://www.w3.org/2000/svg">
<path d="M23.8586 4.32894L18.4274 12.3893C18.0518 12.9382 18.774 13.6027 19.294 13.1404L24.6387 8.48913C24.7832 8.37356 24.9854 8.46024 24.9854 8.66248V23.1942C24.9854 23.3965 24.7254 23.4832 24.6098 23.3386L8.43135 3.98227C7.91133 3.34668 7.16018 3 6.32237 3H5.74456C4.24228 3 3 4.24228 3 5.77345V26.2277C3 27.7588 4.24228 29.0011 5.77345 29.0011C6.72683 29.0011 7.62243 28.51 8.14245 27.6722L13.5738 19.6119C13.9494 19.063 13.2271 18.3984 12.7071 18.8607L7.36242 23.4832C7.21796 23.5986 7.01573 23.512 7.01573 23.3098V8.80693C7.01573 8.60469 7.27574 8.51801 7.39131 8.66248L23.5698 28.0188C24.0898 28.6544 24.8698 29.0011 25.6787 29.0011H26.2566C27.7878 29.0011 29.03 27.7588 29.03 26.2277V5.77345C29.0011 4.24228 27.7588 3 26.2277 3C25.2743 3 24.3787 3.49113 23.8586 4.32894Z" fill="white"/>
</svg>
