<svg width="24" height="24" viewBox="0 0 24 24" fill="none" xmlns="http://www.w3.org/2000/svg">
<path d="M4.88725 13.1147H16.9538L12.5767 17.4917C12.2218 17.8466 12.2218 18.379 12.5767 18.7339C12.9316 19.0888 13.464 19.0888 13.8189 18.7339L19.7338 12.8189C20.0887 12.464 20.0887 11.9317 19.7338 11.5768L13.8189 5.6618C13.6414 5.48435 13.4048 5.4252 13.1682 5.4252C12.9316 5.4252 12.695 5.48435 12.5176 5.6618C12.1627 6.0167 12.1627 6.54904 12.5176 6.90394L16.8946 11.281H4.88725C4.41405 11.281 4 11.6951 4 12.1683C4 12.6415 4.41405 13.1147 4.88725 13.1147Z" fill="#5354D1"/>
</svg>
