<svg width="56" height="56" viewBox="0 0 56 56" fill="none" xmlns="http://www.w3.org/2000/svg">
<path d="M46.6668 35V17.5L32.0835 9.29688M23.9168 9.29688L9.3335 17.5V35M12.8335 40.4687L28.0002 49L37.3335 43.75L43.1668 40.4687" stroke="white" stroke-width="3.5" stroke-linecap="round" stroke-linejoin="round"/>
<path d="M24.5 21.875L21 23.9167V28V32.0834L24.5 34.125L28 36.1667L31.5 34.125L35 32.0834V28V23.9167L31.5 21.875L28 19.8334L24.5 21.875Z" stroke="white" stroke-width="3.5" stroke-linecap="round" stroke-linejoin="round"/>
<path d="M28 19.8333V11.6666" stroke="white" stroke-width="3.5" stroke-linecap="round" stroke-linejoin="round"/>
<path d="M35 31.5L43.1667 36.1667" stroke="white" stroke-width="3.5" stroke-linecap="round" stroke-linejoin="round"/>
<path d="M21.0002 31.5L12.8335 36.1667" stroke="white" stroke-width="3.5" stroke-linecap="round" stroke-linejoin="round"/>
<path d="M28 11.6666C29.933 11.6666 31.5 10.0996 31.5 8.16663C31.5 6.23363 29.933 4.66663 28 4.66663C26.067 4.66663 24.5 6.23363 24.5 8.16663C24.5 10.0996 26.067 11.6666 28 11.6666Z" stroke="white" stroke-width="3.5" stroke-linecap="round" stroke-linejoin="round"/>
<path d="M9.3335 42C11.2665 42 12.8335 40.433 12.8335 38.5C12.8335 36.567 11.2665 35 9.3335 35C7.4005 35 5.8335 36.567 5.8335 38.5C5.8335 40.433 7.4005 42 9.3335 42Z" stroke="white" stroke-width="3.5" stroke-linecap="round" stroke-linejoin="round"/>
<path d="M46.667 42C48.6 42 50.167 40.433 50.167 38.5C50.167 36.567 48.6 35 46.667 35C44.734 35 43.167 36.567 43.167 38.5C43.167 40.433 44.734 42 46.667 42Z" stroke="white" stroke-width="3.5" stroke-linecap="round" stroke-linejoin="round"/>
</svg>
