<svg width="56" height="56" viewBox="0 0 56 56" fill="none" xmlns="http://www.w3.org/2000/svg">
<path d="M18.6667 4.66663C16.3333 4.66663 12.8333 5.83329 12.8333 10.5C12.8333 15.1666 12.8333 17.5 12.8333 21C12.8333 24.5 7 26.8333 7 26.8333C7 26.8333 12.8333 29.1666 12.8333 32.6666C12.8333 36.1666 12.8333 40.8333 12.8333 45.5C12.8333 50.1666 16.3333 51.3333 18.6667 51.3333" stroke="white" stroke-width="3.5" stroke-linecap="round" stroke-linejoin="round"/>
<path d="M37.3335 4.66663C39.6668 4.66663 43.1668 5.83329 43.1668 10.5C43.1668 15.1666 43.1668 17.5 43.1668 21C43.1668 24.5 49.0002 26.8333 49.0002 26.8333C49.0002 26.8333 43.1668 29.1666 43.1668 32.6666C43.1668 36.1666 43.1668 40.8333 43.1668 45.5C43.1668 50.1666 39.6668 51.3333 37.3335 51.3333" stroke="white" stroke-width="3.5" stroke-linecap="round" stroke-linejoin="round"/>
</svg>
