<svg width="16" height="16" viewBox="0 0 16 16" fill="none" xmlns="http://www.w3.org/2000/svg">
<path d="M14.9279 11.7239L12.6168 14.1654C12.5665 14.2184 12.5057 14.2607 12.4382 14.2896C12.3707 14.3185 12.2978 14.3334 12.2242 14.3333H1.2683C1.21603 14.3333 1.16489 14.3183 1.12118 14.29C1.07746 14.2618 1.04307 14.2216 1.02224 14.1744C1.0014 14.1272 0.995021 14.075 1.00389 14.0242C1.01275 13.9735 1.03647 13.9264 1.07214 13.8887L3.385 11.4473C3.43511 11.3944 3.4957 11.3522 3.56302 11.3233C3.63036 11.2944 3.703 11.2795 3.77645 11.2794H14.7317C14.784 11.2794 14.8351 11.2944 14.8788 11.3226C14.9225 11.3509 14.9569 11.3911 14.9778 11.4383C14.9986 11.4855 15.005 11.5377 14.9961 11.5885C14.9872 11.6392 14.9635 11.6863 14.9279 11.7239ZM12.6168 6.80764C12.5665 6.75461 12.5057 6.71232 12.4382 6.68343C12.3707 6.65454 12.2978 6.63964 12.2242 6.63968H1.2683C1.21603 6.63968 1.16489 6.65472 1.12118 6.68296C1.07746 6.7112 1.04307 6.7514 1.02224 6.79862C1.0014 6.84585 0.995021 6.89804 1.00389 6.94879C1.01275 6.99952 1.03647 7.04661 1.07214 7.08427L3.385 9.52568C3.43511 9.57857 3.4957 9.62076 3.56302 9.64966C3.63036 9.67854 3.703 9.69353 3.77645 9.69364H14.7317C14.784 9.69364 14.8351 9.6786 14.8788 9.65036C14.9225 9.62212 14.9569 9.58192 14.9778 9.53471C14.9986 9.48748 15.005 9.43528 14.9961 9.38454C14.9872 9.3338 14.9635 9.28671 14.9279 9.24905L12.6168 6.80764ZM1.2683 5.05397H12.2242C12.2978 5.054 12.3707 5.03911 12.4382 5.01021C12.5057 4.98131 12.5665 4.93903 12.6168 4.886L14.9279 2.44459C14.9635 2.40694 14.9872 2.35985 14.9961 2.3091C15.005 2.25836 14.9986 2.20617 14.9778 2.15894C14.9569 2.11172 14.9225 2.07152 14.8788 2.04328C14.8351 2.01505 14.784 2 14.7317 2H3.77645C3.703 2.00012 3.63036 2.01509 3.56302 2.04399C3.4957 2.07288 3.43511 2.11508 3.385 2.16797L1.07273 4.60938C1.0371 4.64698 1.01339 4.69403 1.00451 4.74471C0.995622 4.7954 1.00195 4.84755 1.02271 4.89476C1.04348 4.94196 1.07777 4.98216 1.1214 5.01044C1.16502 5.03872 1.21608 5.05384 1.2683 5.05397Z" fill="white"/>
</svg>
