<svg width="20" height="20" viewBox="0 0 20 20" fill="none" xmlns="http://www.w3.org/2000/svg">
<path d="M5.02525 6.625H1V19H5.02525V6.625Z" fill="white"/>
<path d="M15.9895 6.77013C15.9468 6.75663 15.9062 6.742 15.8612 6.72962C15.8073 6.71725 15.7532 6.70713 15.6981 6.69813C15.4844 6.65538 15.2504 6.625 14.9759 6.625C12.6291 6.625 11.1407 8.33163 10.6502 8.99088V6.625H6.625V19H10.6502V12.25C10.6502 12.25 13.6923 8.01325 14.9759 11.125C14.9759 13.9026 14.9759 19 14.9759 19H19V10.6491C19 8.77937 17.7186 7.22125 15.9895 6.77013Z" fill="white"/>
<path d="M2.96875 4.9375C4.05606 4.9375 4.9375 4.05606 4.9375 2.96875C4.9375 1.88144 4.05606 1 2.96875 1C1.88144 1 1 1.88144 1 2.96875C1 4.05606 1.88144 4.9375 2.96875 4.9375Z" fill="white"/>
</svg>
