<svg width="20" height="20" viewBox="0 0 20 20" fill="none" xmlns="http://www.w3.org/2000/svg">
<path d="M9.99984 1.66699C5.29984 1.66699 1.6665 5.10866 1.6665 9.75033C1.6665 12.1753 2.65817 14.2837 4.28317 15.7253C4.4165 15.8337 4.49984 16.017 4.50817 16.2003L4.54984 17.6837C4.58317 18.1587 5.05817 18.467 5.4915 18.2753L7.1415 17.5503C7.28317 17.5003 7.4415 17.4753 7.58317 17.5003C8.33317 17.7253 9.1665 17.8337 9.99984 17.8337C14.6998 17.8337 18.3332 14.392 18.3332 9.75033C18.3332 5.10866 14.6998 1.66699 9.99984 1.66699ZM14.9998 7.88366L12.5582 11.7753C12.1665 12.3837 11.3332 12.542 10.7498 12.0837L8.79984 10.642C8.71329 10.5771 8.60802 10.542 8.49984 10.542C8.39165 10.542 8.28639 10.5771 8.19984 10.642L5.5665 12.642C5.2165 12.917 4.75817 12.5003 4.99984 12.117L7.4415 8.22533C7.83317 7.61699 8.6665 7.45866 9.24984 7.89199L11.1998 9.35866C11.2864 9.42357 11.3917 9.45866 11.4998 9.45866C11.608 9.45866 11.7133 9.42357 11.7998 9.35866L14.4332 7.35866C14.7832 7.08366 15.2415 7.50033 14.9998 7.88366Z" fill="white"/>
</svg>
